<?xml version="1.0" encoding="UTF-8"?>
<svg version="1.1" xmlns="http://www.w3.org/2000/svg" width="1024" height="1024">
<path d="M0 0 C337.92 0 675.84 0 1024 0 C1024 337.92 1024 675.84 1024 1024 C686.08 1024 348.16 1024 0 1024 C0 686.08 0 348.16 0 0 Z " fill="#000000" transform="translate(0,0)"/>
<path d="M0 0 C0.70518934 -0.00467997 1.41037867 -0.00935994 2.13693738 -0.01418173 C4.50092691 -0.02615025 6.86433864 -0.01666671 9.22833252 -0.00723267 C10.92395364 -0.01129829 12.6195721 -0.01664011 14.31518555 -0.02316284 C18.92804905 -0.03686422 23.54071164 -0.03152068 28.15357876 -0.02202559 C33.00038117 -0.01441886 37.84716662 -0.02147971 42.69396973 -0.02618408 C50.85519478 -0.0316491 59.01633856 -0.02444135 67.17755127 -0.01016235 C76.55438309 0.00605629 85.93101809 0.00095791 95.30784488 -0.01564157 C103.38977933 -0.02936678 111.47165531 -0.03111958 119.55359769 -0.02332556 C124.36546358 -0.01869491 129.17723793 -0.01789252 133.9890976 -0.02793503 C171.17690944 -0.09481247 214.74851674 0.05393773 245.99884033 23.38095093 C247.01333252 24.11571655 248.02782471 24.85048218 249.07305908 25.60751343 C252.08423469 27.82237568 255.04925381 30.08494185 257.99884033 32.38095093 C258.65755127 32.88239624 259.31626221 33.38384155 259.99493408 33.90048218 C284.7032478 53.701371 294.53626602 88.29940689 297.99884033 118.38095093 C298.93557591 129.6064923 299.16151833 140.79073905 299.16680908 152.04891968 C299.17003772 153.70210293 299.17340287 155.35528591 299.17689514 157.00846863 C299.1828283 160.44977478 299.1847411 163.89105605 299.18414307 167.33236694 C299.18406187 170.81419069 299.19100286 174.29588268 299.20465088 177.77767944 C299.38582847 224.77333639 299.38582847 224.77333639 294.74884033 243.69345093 C294.53268066 244.60240112 294.316521 245.51135132 294.09381104 246.44784546 C289.30347445 265.84486611 280.93238098 284.99532636 267.99884033 300.38095093 C267.33884033 300.38095093 266.67884033 300.38095093 265.99884033 300.38095093 C265.72684814 300.9764978 265.45485596 301.57204468 265.17462158 302.18563843 C255.33484279 320.55758421 226.90165353 332.21221524 208.15509033 337.92514038 C197.88830557 340.89477013 187.58170579 342.94170543 176.99884033 344.38095093 C175.75179321 344.5548082 174.50474609 344.72866547 173.21990967 344.90779114 C169.2944912 345.3938716 165.4397002 345.5014454 161.48126221 345.49447632 C160.42612427 345.49469536 160.42612427 345.49469536 159.34967041 345.49491882 C157.05561086 345.49422962 154.76163547 345.48648437 152.46759033 345.47860718 C150.86476689 345.47673946 149.26194287 345.47531723 147.65911865 345.47431946 C143.46374911 345.4705221 139.26841481 345.46071589 135.07305908 345.44961548 C130.78269935 345.43934124 126.49233385 345.43480901 122.20196533 345.42977905 C113.80090759 345.41909084 105.39987836 345.40204825 96.99884033 345.38095093 C97.00160571 346.42254962 97.00437109 347.46414831 97.00722027 348.5373106 C97.0737811 373.86673119 97.12309963 399.19614046 97.15427685 424.52563 C97.16975416 436.77471713 97.19086023 449.02374654 97.22515869 461.27279663 C97.25503454 471.94747099 97.27440905 482.62210355 97.28110582 493.29681855 C97.28502113 498.9504411 97.29424072 504.60394404 97.3160305 510.25752831 C97.33636693 515.57703667 97.34267986 520.89637595 97.33816338 526.21591949 C97.33898985 528.16986064 97.34497235 530.12380735 97.35645676 532.07771492 C97.37135632 534.74302307 97.36780321 537.4076907 97.35960388 540.07301331 C97.36834241 540.8483116 97.37708093 541.6236099 97.38608426 542.42240208 C97.34854219 546.92938095 96.76265562 549.78713667 93.99884033 553.38095093 C89.61183466 557.09978937 85.19023808 556.81931412 79.71392822 556.8008728 C78.78649307 556.80934235 77.85905792 556.81781189 76.90351868 556.82653809 C73.84270454 556.84990622 70.78239312 556.8509303 67.72149658 556.84970093 C65.59067077 556.85680238 63.45984687 556.86450135 61.32902527 556.87277222 C56.86449873 556.88621645 52.40014903 556.8877859 47.93560791 556.88192749 C42.21776927 556.87603019 36.50077936 556.90662506 30.7831049 556.94704437 C26.3829848 556.97290771 21.98306947 556.97580002 17.58288383 556.97215271 C15.4749685 556.97384509 13.36704383 556.98349892 11.25920296 557.001297 C8.30994143 557.02346032 5.36240317 557.01379795 2.41314697 556.9961853 C1.11078094 557.01608017 1.11078094 557.01608017 -0.21789551 557.03637695 C-4.37302448 556.97879151 -7.18125275 556.68261838 -10.52705383 554.09249878 C-14.79733411 549.41239611 -14.14524075 544.58328963 -14.13258743 538.48496342 C-14.13464007 537.57181261 -14.1366927 536.6586618 -14.13880754 535.71783975 C-14.14449494 532.63556449 -14.14301815 529.55333368 -14.14160156 526.47105408 C-14.14418419 524.2478974 -14.14719706 522.02474118 -14.15060496 519.80158561 C-14.15869003 513.67482548 -14.16046537 507.54807705 -14.16120243 501.42131221 C-14.1628607 495.49800754 -14.16917683 489.574709 -14.17528084 483.65140751 C-14.19134481 467.78122497 -14.19724418 451.91104339 -14.20202959 436.04085418 C-14.20436473 428.53594957 -14.20796725 421.03104573 -14.21172497 413.52614172 C-14.22455964 387.84438419 -14.23527984 362.16262709 -14.23872757 336.48086643 C-14.2389492 334.86859959 -14.23917099 333.25633275 -14.23939292 331.64406591 C-14.23961356 330.02787675 -14.23983405 328.41168759 -14.24005437 326.79549843 C-14.24049693 323.55306788 -14.24094404 320.31063733 -14.24139404 317.06820679 C-14.24150343 316.26427192 -14.24161282 315.46033704 -14.24172553 314.63204051 C-14.24535798 288.55123352 -14.26128555 262.47045429 -14.28458441 236.38965793 C-14.30916338 208.82559539 -14.32289947 181.26154872 -14.32409549 153.6974749 C-14.32426695 150.67354484 -14.32448238 147.64961479 -14.32472992 144.62568474 C-14.32478569 143.88108975 -14.32484146 143.13649475 -14.32489892 142.36933628 C-14.32605092 130.37196418 -14.33708539 118.37462051 -14.35161697 106.37725802 C-14.3659613 94.32645774 -14.36923063 82.27569403 -14.361177 70.22488756 C-14.35710529 63.6927269 -14.35826383 57.1606432 -14.37223434 50.62849236 C-14.38489465 44.65455195 -14.38384548 38.68078041 -14.37164363 32.70684051 C-14.36967293 30.53999287 -14.37282773 28.37313358 -14.381488 26.20630235 C-14.3924793 23.27158663 -14.38516483 20.33747759 -14.37309647 17.40277958 C-14.38069166 16.55231584 -14.38828685 15.70185211 -14.3961122 14.82561675 C-14.34539007 9.15172772 -13.32681844 5.7581259 -9.25123215 1.59226036 C-6.08768296 -0.11081232 -3.5851838 0.00321064 0 0 Z " fill="#FBB249" transform="translate(191.00115966796875,217.61904907226563)"/>
<path d="M0 0 C0.71559082 0.20995605 1.43118164 0.41991211 2.16845703 0.63623047 C22.93313524 6.77864978 45.4643414 17.59701038 59 35 C60.2065625 36.175625 60.2065625 36.175625 61.4375 37.375 C72 48.19512195 72 48.19512195 72 54 C72.66 54 73.32 54 74 54 C89.68803376 83.80726415 96.05038079 114.15906735 96.375 147.9375 C96.38885742 148.78876465 96.40271484 149.6400293 96.41699219 150.51708984 C96.38105919 155.13637162 96.09636759 158.32897903 93 162 C89.36345894 164.5466872 86.48261671 165.47969444 82.09375 165.9921875 C80.8967749 166.1375293 79.6997998 166.28287109 78.46655273 166.43261719 C77.15759033 166.57860352 75.84862793 166.72458984 74.5 166.875 C73.11066554 167.0372924 71.72142625 167.20040133 70.33227539 167.36425781 C67.26416555 167.72337858 64.19519757 168.07377174 61.12548828 168.41894531 C56.5443767 168.93518663 51.96607159 169.47359124 47.38790894 170.01528931 C43.39315959 170.48613653 39.39741194 170.94806472 35.40136719 171.40777588 C33.44747763 171.63338253 31.49385505 171.86131527 29.54052734 172.09173584 C20.51976403 173.15073377 11.49783573 174.19101833 2.41015625 174.390625 C1.25781494 174.41672852 0.10547363 174.44283203 -1.08178711 174.46972656 C-4.72608854 173.88312605 -5.7986771 172.92096817 -8 170 C-10.29961422 165.79810622 -10.29493091 161.6623212 -10.30859375 156.98046875 C-10.33379904 155.38346061 -10.35919624 153.78645548 -10.38476562 152.18945312 C-10.41318279 149.70647337 -10.43722307 147.2235476 -10.45629883 144.74047852 C-10.61306967 127.62144733 -11.13502916 109.53481454 -23.53125 96.296875 C-35.11656591 85.51813171 -48.38136326 83.36611734 -63.72167969 83.86816406 C-72.39198386 84.36987476 -79.3835869 86.52440485 -86.29296875 91.79296875 C-88 93 -88 93 -90 93 C-90.27070312 93.57492187 -90.54140625 94.14984375 -90.8203125 94.7421875 C-92.01465189 97.02804236 -93.37989305 99.02565294 -94.875 101.125 C-106.82038393 119.14480057 -105.44067383 141.76397736 -105.38818359 162.52685547 C-105.39060955 165.2541782 -105.3974964 167.98148592 -105.40411377 170.70880127 C-105.41734976 177.30332516 -105.41461885 183.89774575 -105.40587585 190.49227343 C-105.39905819 195.86016432 -105.39820006 201.22802657 -105.4014473 206.59592056 C-105.40213684 207.74861605 -105.40213684 207.74861605 -105.40284032 208.92459831 C-105.40379965 210.48648882 -105.4047723 212.04837931 -105.4057581 213.6102698 C-105.41428261 228.2058456 -105.40452486 242.80136459 -105.388357 257.39693107 C-105.37496188 269.87483795 -105.37728099 282.35266104 -105.39111328 294.83056641 C-105.40723064 309.3762751 -105.41345329 323.92193415 -105.40427649 338.46765053 C-105.40332101 340.02391632 -105.40237789 341.58018211 -105.4014473 343.13644791 C-105.40098447 343.90183906 -105.40052164 344.66723021 -105.40004479 345.45581504 C-105.39747288 350.80573911 -105.40178677 356.15563126 -105.40888596 361.50555038 C-105.41737023 368.04199468 -105.41487766 374.57833115 -105.39904372 381.11476336 C-105.39125189 384.43903577 -105.38957291 387.76298408 -105.39799118 391.08727646 C-105.94485122 425.65531158 -105.94485122 425.65531158 -91.1796875 455.875 C-87.83601778 459.13477836 -84.21444269 461.07429959 -80 463 C-79.01 463.556875 -78.02 464.11375 -77 464.6875 C-64.14177222 470.31297465 -47.07532015 469.56199357 -34 465 C-30.85385912 463.52871647 -27.94476643 461.83216474 -25 460 C-24.27941406 459.68160156 -23.55882812 459.36320312 -22.81640625 459.03515625 C-20.65228071 458.0696054 -20.65228071 458.0696054 -20 455 C-19.34 455 -18.68 455 -18 455 C-17.58041016 453.90365234 -17.58041016 453.90365234 -17.15234375 452.78515625 C-16.0926564 450.2239458 -14.88396045 447.87046924 -13.5625 445.4375 C-8.25891967 434.93985281 -6.88768128 423.37129289 -6.79467773 411.74804688 C-6.78477814 410.96659302 -6.77487854 410.18513916 -6.76467896 409.38000488 C-6.73337873 406.82628287 -6.70843264 404.27254232 -6.68359375 401.71875 C-6.66299695 399.93655953 -6.64199981 398.15437364 -6.62062073 396.37219238 C-6.56568139 391.70340715 -6.51614916 387.0345799 -6.46777344 382.36572266 C-6.4173517 377.59273584 -6.36177402 372.8198093 -6.30664062 368.046875 C-6.19940372 358.69796828 -6.09788362 349.349009 -6 340 C-7.24612061 340.01571045 -8.49224121 340.0314209 -9.77612305 340.04760742 C-14.40724198 340.10198073 -19.03833278 340.13637711 -23.66967773 340.16479492 C-25.67265572 340.17986465 -27.6756008 340.2003241 -29.6784668 340.22631836 C-32.56046681 340.26278127 -35.44202984 340.27974461 -38.32421875 340.29296875 C-39.21711105 340.30845261 -40.11000336 340.32393646 -41.029953 340.33988953 C-45.81347795 340.34117914 -49.21491313 340.26064979 -53 337 C-56.01737753 332.92298305 -56.38239314 329.9249472 -56.40405273 324.90234375 C-56.41091599 324.207388 -56.41777924 323.51243225 -56.42485046 322.79641724 C-56.44308228 320.50990094 -56.4392869 318.22407306 -56.43359375 315.9375 C-56.4381569 314.34236428 -56.44346287 312.74723052 -56.44947815 311.15209961 C-56.45840179 307.81323241 -56.45599426 304.47460451 -56.44604492 301.13574219 C-56.43454841 296.86168317 -56.45478024 292.58844951 -56.48396206 288.3144989 C-56.5023256 285.02187881 -56.50203148 281.72945655 -56.49632454 278.4367981 C-56.49617138 276.86116375 -56.5022111 275.28551594 -56.51461601 273.70993042 C-56.52953034 271.50531492 -56.51884856 269.3022247 -56.50170898 267.09765625 C-56.50154282 265.84476807 -56.50137665 264.59187988 -56.50120544 263.30102539 C-55.90021616 259.34280646 -54.8766601 257.75087345 -52 255 C-48.31410994 253.19212708 -45.35273776 252.74913728 -41.26928711 252.74603271 C-40.12531464 252.74039307 -38.98134216 252.73475342 -37.80270386 252.72894287 C-35.9339006 252.73501556 -35.9339006 252.73501556 -34.02734375 252.74121094 C-32.04856735 252.73595398 -32.04856735 252.73595398 -30.02981567 252.73059082 C-26.41828347 252.72148549 -22.80686574 252.72500339 -19.19533157 252.73134899 C-15.41268865 252.73641859 -11.63005542 252.73171487 -7.84741211 252.72857666 C-1.4955876 252.72493982 4.85619037 252.72972872 11.20800781 252.73925781 C18.54765966 252.75014184 25.8872004 252.74661606 33.22684956 252.735605 C39.53271847 252.7265241 45.83855396 252.72525078 52.1444273 252.73048234 C55.90881356 252.73359762 59.67314762 252.73402353 63.43753052 252.72740936 C67.63420169 252.72055049 71.8306818 252.73006179 76.02734375 252.74121094 C77.27321259 252.73716248 78.51908142 252.73311401 79.80270386 252.72894287 C81.51866257 252.73740234 81.51866257 252.73740234 83.26928711 252.74603271 C84.75699867 252.74716379 84.75699867 252.74716379 86.27476501 252.74831772 C90.63920738 253.15138491 93.11403287 254.14268317 96.28159523 257.20781326 C98.38729807 260.62930956 98.49818571 262.67350714 98.49447632 266.67498779 C98.49930515 267.33288433 98.50413398 267.99078087 98.50910914 268.66861367 C98.52035249 270.86639774 98.50308264 273.06301093 98.48583984 275.26074219 C98.48798667 276.839791 98.49186579 278.41883826 98.49734497 279.99787903 C98.50703889 284.28593333 98.49172691 288.57357114 98.47143888 292.86157513 C98.45383402 297.36329845 98.45739388 301.86500952 98.4581604 306.36676025 C98.4562866 313.9394015 98.43892558 321.51188263 98.41162109 329.08447266 C98.38030566 337.80081135 98.36962027 346.5169739 98.3710922 355.23336482 C98.3724521 364.54823485 98.35850472 373.86303819 98.34019899 383.17788792 C98.33596603 385.84142124 98.33452062 388.50494356 98.33372116 391.16847992 C98.33168588 395.38745058 98.31926602 399.60627796 98.29938889 403.82520103 C98.29363039 405.35966041 98.29106912 406.8941363 98.29224396 408.42860603 C98.31221079 450.44943404 86.10558689 488.39720807 58 520 C57.14341797 520.98419922 57.14341797 520.98419922 56.26953125 521.98828125 C42.91386681 536.37394552 24.33740399 545.83172379 6 552 C5.33709961 552.22816406 4.67419922 552.45632813 3.99121094 552.69140625 C-16.24639644 559.61193638 -36.09932173 561.23629174 -57.375 561.25 C-58.3147467 561.25067474 -59.25449341 561.25134949 -60.22271729 561.25204468 C-73.7031569 561.23665244 -86.7886071 560.92116979 -100 558 C-100.80872559 557.83371094 -101.61745117 557.66742187 -102.45068359 557.49609375 C-125.08355231 552.77818249 -146.32445151 544.11767691 -164 529 C-164.84111328 528.34064453 -164.84111328 528.34064453 -165.69921875 527.66796875 C-169.29658267 524.84484064 -172.2037409 521.63022824 -175.1484375 518.16015625 C-176.3955631 516.70517638 -177.67269816 515.27545356 -178.9765625 513.87109375 C-184.1183848 508.32229323 -188.10526627 502.47042721 -192 496 C-192.55300781 495.16726563 -193.10601563 494.33453125 -193.67578125 493.4765625 C-212.68903894 463.66727114 -214.32202299 427.63299496 -214.27610838 393.41383564 C-214.27360368 389.90381882 -214.28270085 386.3938268 -214.29014587 382.88381958 C-214.30279231 376.03545005 -214.3046993 369.18711991 -214.30234561 362.33874067 C-214.30055106 356.7635151 -214.30233623 351.18830133 -214.30657005 345.61307716 C-214.30716524 344.81479747 -214.30776043 344.01651777 -214.30837366 343.19404778 C-214.3095856 341.57152328 -214.31079974 339.94899878 -214.31201603 338.32647429 C-214.32285266 323.16477648 -214.32074744 308.00310101 -214.31463119 292.84140197 C-214.3094645 279.02304995 -214.32071788 265.20476848 -214.33972941 251.38643041 C-214.35918063 237.13735318 -214.36735116 222.8883092 -214.36360615 208.63921863 C-214.36170524 200.66362197 -214.3640723 192.68808532 -214.37832069 184.71249962 C-214.39032884 177.92325411 -214.3915351 171.13410556 -214.37953053 164.34485849 C-214.37370736 160.8927779 -214.37235594 157.44087381 -214.38453293 153.98880577 C-214.46042621 127.06874044 -212.39453417 101.07512627 -202 76 C-201.70609375 75.17628906 -201.4121875 74.35257812 -201.109375 73.50390625 C-196.77060253 61.49339519 -189.33835585 50.57536469 -181 41 C-180.21367188 40.05769531 -179.42734375 39.11539063 -178.6171875 38.14453125 C-154.13119088 9.89426947 -116.4409726 -3.63814654 -79.94921875 -6.6484375 C-53.32680321 -8.44196696 -25.66814131 -7.81434643 0 0 Z " fill="#FBB249" transform="translate(754,220)"/>
<path d="M0 0 C64.95628479 0 64.95628479 0 76.890625 10.79296875 C91.27806724 25.84649628 92.15419815 44.50274392 92.203125 64.35546875 C92.20736607 65.52494269 92.20736607 65.52494269 92.21169281 66.71804237 C92.22661053 70.84499058 92.23588652 74.9719045 92.24023438 79.09887695 C92.2457053 83.32019864 92.26972556 87.54119561 92.29820633 91.76241589 C92.31699954 95.04591233 92.3220471 98.32933316 92.32357025 101.6128788 C92.3265603 103.1671253 92.3344621 104.72137167 92.34775543 106.27556419 C92.4924782 124.49705114 89.45111592 139.95999458 77 154 C74.5625 156.25 74.5625 156.25 72 158 C71.24589844 158.59554687 71.24589844 158.59554687 70.4765625 159.203125 C51.83823863 172.71387506 18.29076511 167 0 167 C0 111.89 0 56.78 0 0 Z " fill="#000000" transform="translate(288,308)"/>
<path d="M0 0 C0.33 0 0.66 0 1 0 C1.00135653 1.13188141 1.00271306 2.26376283 1.00411069 3.42994368 C1.06401229 53.30253678 1.12637434 103.17512602 1.20132446 153.04769897 C1.2030249 154.17988544 1.2030249 154.17988544 1.20475969 155.33494437 C1.22940989 171.73773191 1.2545027 188.14051874 1.28005161 204.5433049 C1.2925777 212.58697527 1.30500596 220.6306458 1.31738281 228.67431641 C1.31861614 229.47476754 1.31984946 230.27521866 1.32112016 231.09992589 C1.36106545 257.05495155 1.39454804 283.00998067 1.42468691 308.96501942 C1.455687 335.63237886 1.49319166 362.2997214 1.53890612 388.96705987 C1.54535672 392.73176676 1.5517328 396.49647378 1.55806351 400.26118088 C1.55931181 401.002145 1.56056012 401.74310912 1.56184625 402.50652669 C1.58176621 414.44439589 1.59480882 426.38226322 1.60529328 438.32014402 C1.61597443 450.3154459 1.63386838 462.31071972 1.65916704 474.30599983 C1.67257513 480.80785617 1.68270361 487.30967541 1.68421364 493.81154633 C1.68566555 499.75915846 1.69621737 505.70668113 1.71413441 511.65426581 C1.71900079 513.81047707 1.72047231 515.96669911 1.71827881 518.12291475 C1.71579277 521.04565062 1.72547919 523.9680994 1.73828697 526.89080238 C1.73463729 527.73496946 1.73098761 528.57913653 1.72722733 529.44888443 C1.76168912 533.9937643 2.11933031 537.77065006 4 542 C4.66 542.33 5.32 542.66 6 543 C6 543.66 6 544.32 6 545 C9.98116699 546.32705566 13.8168215 546.17779297 17.96948242 546.20532227 C19.34539299 546.22017166 19.34539299 546.22017166 20.74909973 546.23532104 C23.78452971 546.2669378 26.81997535 546.29169423 29.85546875 546.31640625 C31.95868845 546.33697562 34.06190402 546.35797209 36.16511536 546.37937927 C41.70365044 546.43460167 47.24222284 546.48401025 52.78082275 546.53222656 C58.43138962 546.58244033 64.08190223 546.63812705 69.73242188 546.69335938 C80.82156824 546.80094302 91.9107617 546.90238758 103 547 C103 547.33 103 547.66 103 548 C90.58687932 548.11587934 78.17388745 548.20470844 65.76033592 548.25906086 C59.99611676 548.28514816 54.23226781 548.32053125 48.46826172 548.37719727 C42.90504953 548.43154666 37.34219331 548.46142706 31.77873611 548.47438622 C29.65683005 548.48362073 27.53494335 548.50165376 25.41318893 548.52865028 C22.43958272 548.56497882 19.46744497 548.56994366 16.49365234 548.56762695 C15.6175531 548.58560333 14.74145386 548.60357971 13.83880615 548.62210083 C9.66176861 548.58691715 6.8345469 548.31962791 3.46914673 545.71452332 C-0.79693794 541.02448762 -0.14181621 536.19301897 -0.12304783 530.09004593 C-0.12420167 529.17539714 -0.12535552 528.26074834 -0.12654433 527.31838292 C-0.12920661 524.23105645 -0.12469197 521.14378137 -0.12025452 518.05645752 C-0.1206903 515.82973778 -0.12156533 513.60301808 -0.12284368 511.37629867 C-0.12508729 505.23988128 -0.12106916 499.10348123 -0.11606562 492.96706605 C-0.11220128 487.03465514 -0.11302535 481.10224544 -0.11374746 475.16983373 C-0.1150622 463.03204593 -0.11171678 450.89426357 -0.10573006 438.75647736 C-0.09981626 426.73578108 -0.09596476 414.71508707 -0.09487724 402.69438934 C-0.0948085 401.94742339 -0.09473976 401.20045743 -0.09466894 400.43085614 C-0.09433062 396.63750777 -0.09402923 392.8441594 -0.09374207 389.05081102 C-0.09164076 362.17140502 -0.08490092 335.29200199 -0.07543945 308.41259766 C-0.06625745 282.29703792 -0.05917265 256.18147899 -0.05493164 230.06591797 C-0.05480011 229.26114794 -0.05466859 228.45637791 -0.05453308 227.6272209 C-0.05321457 219.54550683 -0.05193876 211.46379275 -0.05069422 203.38207866 C-0.0481579 186.91819156 -0.04533664 170.45430451 -0.04234314 153.99041748 C-0.04220585 153.23340811 -0.04206856 152.47639874 -0.04192711 151.69644969 C-0.03272397 101.13096521 -0.01685771 50.56548245 0 0 Z " fill="#DBAE6C" transform="translate(177,226)"/>
<path d="M0 0 C0.33 0.66 0.66 1.32 1 2 C0.69602283 2.51844852 0.39204566 3.03689704 0.07885706 3.57105613 C-1.54897644 7.23596813 -1.27864488 10.92241023 -1.26171303 14.86310196 C-1.26570909 15.77268563 -1.26970515 16.6822693 -1.27382231 17.61941612 C-1.28485475 20.68954856 -1.28158711 23.75950251 -1.2784729 26.82965088 C-1.28347246 29.04399818 -1.28934725 31.25834365 -1.29602563 33.47268653 C-1.31188077 39.57490197 -1.31525934 45.67707143 -1.31667423 51.77930498 C-1.31998061 57.6786924 -1.33262898 63.57805461 -1.3450741 69.47742874 C-1.3702127 81.54759197 -1.3860659 93.61775082 -1.39665604 105.68793488 C-1.40717423 117.64165442 -1.42180171 129.59535726 -1.44193649 141.54906464 C-1.44318536 142.29187155 -1.44443423 143.03467847 -1.44572094 143.79999468 C-1.45208455 147.57222302 -1.45852177 151.34445123 -1.46498732 155.1166794 C-1.51066917 181.84633224 -1.5471086 208.57599052 -1.578125 235.30566406 C-1.60828108 261.27572423 -1.64261595 287.24577336 -1.68261719 313.21582031 C-1.68384819 314.01610818 -1.68507919 314.81639604 -1.6863475 315.64093505 C-1.69871419 323.67763905 -1.71116593 331.71434292 -1.72367998 339.75104669 C-1.7491714 356.1232353 -1.77409508 372.49542475 -1.79867554 388.86761475 C-1.79980645 389.62040765 -1.80093736 390.37320055 -1.80210253 391.14880536 C-1.87757789 441.43252418 -1.93977672 491.71626086 -2 542 C-2.33 542 -2.66 542 -3 542 C-3.0513349 490.6557533 -3.09909935 439.31150467 -3.12702942 387.96723938 C-3.12744359 387.20780502 -3.12785776 386.44837065 -3.12828448 385.66592313 C-3.13726238 369.16293317 -3.14557305 352.65994294 -3.15319599 336.1569523 C-3.15693813 328.06435161 -3.16082777 319.97175098 -3.16479492 311.87915039 C-3.1651872 311.07382246 -3.16557948 310.26849452 -3.16598364 309.43876271 C-3.17877667 283.31724637 -3.20131729 257.19574944 -3.22889166 231.07424487 C-3.25716727 204.23982683 -3.27565118 177.40541955 -3.28174497 150.57098686 C-3.28260948 146.78423568 -3.2835864 142.99748454 -3.28463173 139.21073341 C-3.284834 138.46541757 -3.28503627 137.72010173 -3.28524467 136.95220057 C-3.28879526 124.93561409 -3.30272404 112.91906078 -3.3204961 100.90248785 C-3.33812584 88.83331393 -3.34491199 76.76417302 -3.34050413 64.69498666 C-3.3384177 58.15094758 -3.34162178 51.6069872 -3.35761642 45.06296349 C-3.37213291 39.08033703 -3.37300643 33.09787465 -3.36269668 27.11524091 C-3.36142103 24.94292405 -3.36529617 22.77059727 -3.37464955 20.59830018 C-3.38656866 17.66096399 -3.38027398 14.72423177 -3.36914349 11.78690624 C-3.37702453 10.93004509 -3.38490557 10.07318394 -3.39302543 9.1903573 C-3.34286164 3.39148012 -3.34286164 3.39148012 -1.47671278 1.26070755 C-0.98939756 0.84467406 -0.50208235 0.42864057 0 0 Z " fill="#F5BA5C" transform="translate(181,220)"/>
<path d="M0 0 C1.58941406 0.01353516 1.58941406 0.01353516 3.2109375 0.02734375 C4.40589844 0.04474609 4.40589844 0.04474609 5.625 0.0625 C-4.34851104 6.04178225 -20.36566882 4.33776157 -31.6875 4.2578125 C-33.27888814 4.25406883 -34.87027863 4.25122829 -36.46166992 4.24923706 C-40.59121394 4.24170697 -44.72061067 4.22215391 -48.85009766 4.1998291 C-53.08754485 4.17913764 -57.32501653 4.17018624 -61.5625 4.16015625 C-69.83339991 4.13889461 -78.10418149 4.10489227 -86.375 4.0625 C-86.37223462 5.10409869 -86.36946924 6.14569738 -86.36662006 7.21885967 C-86.30005923 32.54828027 -86.2507407 57.87768953 -86.21956348 83.20717907 C-86.20408617 95.45626621 -86.1829801 107.70529562 -86.14868164 119.9543457 C-86.11880579 130.62902006 -86.09943129 141.30365262 -86.09273452 151.97836763 C-86.0888192 157.63199017 -86.07959961 163.28549312 -86.05780983 168.93907738 C-86.03747341 174.25858574 -86.03116047 179.57792502 -86.03567696 184.89746857 C-86.03485048 186.85140972 -86.02886798 188.80535642 -86.01738358 190.75926399 C-86.00248402 193.42457214 -86.00603712 196.08923977 -86.01423645 198.75456238 C-86.00549793 199.52986067 -85.9967594 200.30515897 -85.98775607 201.10395116 C-86.02514915 205.59304226 -86.58091699 208.4998223 -89.375 212.0625 C-90.035 212.3925 -90.695 212.7225 -91.375 213.0625 C-90.76222388 210.10074877 -90.12127478 208.68191217 -88.375 206.0625 C-88.17582996 203.34196564 -88.09413176 200.72305074 -88.10325623 198.00180054 C-88.09816939 197.1709817 -88.09308255 196.34016286 -88.08784157 195.4841677 C-88.07313675 192.69040767 -88.07264632 189.89682341 -88.07202148 187.10302734 C-88.06436333 185.10422928 -88.05581754 183.10543445 -88.04644775 181.10664368 C-88.02814726 176.7981264 -88.01612272 172.48965273 -88.00890923 168.18110275 C-87.99744815 161.37553914 -87.97200405 154.57007229 -87.94459534 147.76455688 C-87.90291781 137.00649295 -87.87051404 126.24842442 -87.84212118 115.49031794 C-87.7911562 96.20959827 -87.72913585 76.92891853 -87.65678078 57.64826739 C-87.6317928 50.87544509 -87.61239107 44.1026357 -87.59739864 37.32978415 C-87.58722965 33.12658451 -87.57308419 28.92340488 -87.55792236 24.72022057 C-87.55174142 22.76299827 -87.54729646 20.80576964 -87.54466438 18.84853935 C-87.54088155 16.18873277 -87.53109354 13.52901565 -87.51976013 10.86923218 C-87.52033933 9.69187722 -87.52033933 9.69187722 -87.52093023 8.49073732 C-87.48906454 3.17656454 -87.48906454 3.17656454 -86.375 2.0625 C-84.10681119 1.94357243 -81.83491883 1.89503103 -79.5637207 1.87304688 C-78.85144821 1.86475357 -78.13917572 1.85646027 -77.40531921 1.84791565 C-75.85295686 1.8304749 -74.3005676 1.81531921 -72.74816322 1.80213928 C-70.28900347 1.78114947 -67.82997697 1.75411931 -65.37089539 1.72546387 C-60.1431482 1.66565994 -54.91533826 1.61362537 -49.6875 1.5625 C-43.64720469 1.50321199 -37.60697349 1.44073851 -31.56679344 1.37062073 C-29.14841636 1.3441348 -26.73003269 1.32325958 -24.31159973 1.3026123 C-22.81881411 1.285996 -21.32603131 1.26912301 -19.83325195 1.25195312 C-18.53498978 1.23942505 -17.2367276 1.22689697 -15.89912415 1.21398926 C-10.51973836 0.98274906 -5.41098989 -0.06012211 0 0 Z " fill="#E5AF5F" transform="translate(374.375,558.9375)"/>
<path d="M0 0 C53 0 53 0 57 2 C38.52 1.67 20.04 1.34 1 1 C1 55.12 1 109.24 1 165 C3.31 164.67 5.62 164.34 8 164 C9.54766018 163.93208944 11.09767803 163.90070606 12.64672852 163.91821289 C13.48772598 163.9247438 14.32872345 163.93127472 15.19520569 163.93800354 C16.08082687 163.94943893 16.96644806 163.96087433 17.87890625 163.97265625 C19.78840969 163.98529663 21.69791499 163.99765802 23.60742188 164.00976562 C26.59177578 164.0346045 29.57603076 164.06265097 32.56030273 164.09594727 C35.45817685 164.1262104 38.35592425 164.14393606 41.25390625 164.16015625 C42.14155167 164.17361588 43.02919708 164.1870755 43.94374084 164.20094299 C48.73594518 164.22026837 52.48463797 163.80078205 57 162 C62.46428571 160.82142857 62.46428571 160.82142857 66 162 C63.93847611 162.64894237 61.87573742 163.2940264 59.8125 163.9375 C58.66394531 164.29714844 57.51539063 164.65679687 56.33203125 165.02734375 C38.2959165 170.29228229 18.78885343 167 0 167 C0 111.89 0 56.78 0 0 Z " fill="#110100" transform="translate(288,308)"/>
<path d="M0 0 C0.33 0 0.66 0 1 0 C1.00808685 0.91375397 1.01617371 1.82750793 1.02450562 2.76895142 C1.10252803 11.39086316 1.18984187 20.01262038 1.28752708 28.63433266 C1.33741902 33.0665742 1.38374959 37.49879273 1.421875 41.93115234 C1.45881765 46.21064557 1.50520179 50.48994288 1.55806351 54.76926804 C1.57655981 56.39985077 1.59168527 58.03047542 1.60334396 59.66112137 C1.6202883 61.94957685 1.64934218 64.23758831 1.68115234 66.52587891 C1.69447601 67.82715729 1.70779968 69.12843567 1.7215271 70.46914673 C1.99939376 73.99231331 2.61776608 76.75369133 4 80 C4.66 80.33 5.32 80.66 6 81 C6 81.66 6 82.32 6 83 C9.98116699 84.32705566 13.8168215 84.17779297 17.96948242 84.20532227 C18.88675613 84.21522186 19.80402985 84.22512146 20.74909973 84.23532104 C23.78452971 84.2669378 26.81997535 84.29169423 29.85546875 84.31640625 C31.95868845 84.33697562 34.06190402 84.35797209 36.16511536 84.37937927 C41.70365044 84.43460167 47.24222284 84.48401025 52.78082275 84.53222656 C58.43138962 84.58244033 64.08190223 84.63812705 69.73242188 84.69335938 C80.82156824 84.80094302 91.9107617 84.90238758 103 85 C103 85.33 103 85.66 103 86 C90.58687932 86.11587934 78.17388745 86.20470844 65.76033592 86.25906086 C59.99611676 86.28514816 54.23226781 86.32053125 48.46826172 86.37719727 C42.90504953 86.43154666 37.34219331 86.46142706 31.77873611 86.47438622 C29.65683005 86.48362073 27.53494335 86.50165376 25.41318893 86.52865028 C22.43958272 86.56497882 19.46744497 86.56994366 16.49365234 86.56762695 C15.6175531 86.58560333 14.74145386 86.60357971 13.83880615 86.62210083 C9.66176861 86.58691715 6.8345469 86.31962791 3.46914673 83.71452332 C-0.62928821 79.20879789 -0.14348244 75.35705089 -0.11352539 69.47753906 C-0.11374443 68.3501255 -0.11374443 68.3501255 -0.1139679 67.19993591 C-0.11327262 64.72180266 -0.10549826 62.24374508 -0.09765625 59.765625 C-0.0957907 58.04498333 -0.09436744 56.32434112 -0.09336853 54.60369873 C-0.08955413 50.07947315 -0.07973302 45.55527977 -0.06866455 41.03106689 C-0.05842729 36.41264278 -0.05386595 31.79421345 -0.04882812 27.17578125 C-0.0381098 18.11717337 -0.02104629 9.05858936 0 0 Z " fill="#E7B569" transform="translate(177,688)"/>
<path d="M0 0 C0.66 0 1.32 0 2 0 C2 58.41 2 116.82 2 177 C1.34 177 0.68 177 0 177 C0 179.64 0 182.28 0 185 C-0.66 185 -1.32 185 -2 185 C-1.85789093 183.92406082 -1.71578186 182.84812164 -1.56936646 181.73957825 C0.53094757 164.1197071 0.26067989 146.46581757 0.20278788 128.75435615 C0.19012424 124.21407673 0.18909789 119.6737935 0.18673706 115.13349915 C0.18056754 106.57059261 0.16421931 98.00773829 0.14403808 89.44485456 C0.12153647 79.68156191 0.11065011 69.91826652 0.10064721 60.15495431 C0.07984804 40.10327394 0.04476203 20.05164029 0 0 Z " fill="#150400" transform="translate(851,479)"/>
<path d="M0 0 C0.6918292 0.00322913 1.3836584 0.00645826 2.09645212 0.00978523 C4.42579649 0.02189534 6.75502499 0.04126081 9.08432007 0.06056213 C10.74961594 0.07070122 12.41491458 0.08039529 14.08021545 0.0896759 C18.61098215 0.11619401 23.14168492 0.1489659 27.67240191 0.1828258 C32.40362854 0.21713216 37.13488948 0.2457354 41.8661499 0.27493286 C50.82989457 0.33112186 59.79359627 0.39247067 68.75729406 0.4556542 C78.96026497 0.52732335 89.16327033 0.59326935 99.3662827 0.65872467 C120.35876568 0.79352635 141.35119473 0.93554756 162.34359741 1.08229065 C162.34359741 1.41229065 162.34359741 1.74229065 162.34359741 2.08229065 C161.48053576 2.08652259 160.61747412 2.09075453 159.72825909 2.09511471 C138.74733955 2.19832993 117.76645413 2.30695392 96.78559399 2.42162991 C86.63949429 2.47695485 76.49339107 2.53043568 66.34725952 2.5796051 C57.5059509 2.62245584 48.6646681 2.66873611 39.82339936 2.7191692 C35.14017537 2.74576294 30.45695647 2.77061587 25.77370262 2.79136467 C21.36855842 2.81093544 16.96346331 2.83508059 12.55836296 2.86278152 C10.93901205 2.87214962 9.31965037 2.87982577 7.70028305 2.88570976 C5.49423152 2.89397504 3.28829903 2.9082529 1.08229065 2.92407227 C-0.15383374 2.93052482 -1.38995813 2.93697737 -2.66354084 2.94362545 C-5.70916345 2.9487767 -5.70916345 2.9487767 -8.65640259 4.08229065 C-8.65640259 3.09229065 -8.65640259 2.10229065 -8.65640259 1.08229065 C-5.75148466 -0.37016831 -3.2458943 -0.0216393 0 0 Z " fill="#270E00" transform="translate(189.65640258789063,215.91770935058594)"/>
<path d="M0 0 C-6.81819637 6.81819637 -21.06929025 6.35764342 -30.0625 6.390625 C-34.3758134 6.37855909 -38.68726007 6.31794745 -43 6.25 C-45.23956722 6.22988801 -47.47915204 6.21164562 -49.71875 6.1953125 C-55.14622455 6.1517278 -60.57302724 6.08519489 -66 6 C-66 5.67 -66 5.34 -66 5 C-64.865625 4.855625 -63.73125 4.71125 -62.5625 4.5625 C-59.19222799 4.38828522 -59.19222799 4.38828522 -58 3 C-54.89489189 2.93595942 -51.81136948 2.93392642 -48.70703125 2.97265625 C-46.77799664 2.98531044 -44.84896008 2.99767081 -42.91992188 3.00976562 C-39.86964915 3.03452871 -36.8194766 3.06242332 -33.76928711 3.09594727 C-30.83186215 3.12624968 -27.89456322 3.14396265 -24.95703125 3.16015625 C-24.05056351 3.17361588 -23.14409576 3.1870755 -22.2101593 3.20094299 C-14.26444329 3.23226154 -7.8277158 -0.1449577 0 0 Z " fill="#422B0F" transform="translate(354,469)"/>
<path d="M0 0 C1.65 0 3.3 0 5 0 C5.28875 0.9075 5.5775 1.815 5.875 2.75 C6.76531776 5.32202908 7.71494413 7.61346766 9 10 C9.66 10 10.32 10 11 10 C12.2265625 11.28515625 12.2265625 11.28515625 13.625 13.0625 C16.50283608 16.53696063 19.61413944 19.46182025 23.06640625 22.359375 C25 24 25 24 26.52734375 25.515625 C30.65805407 29.49758398 34.51248047 29.86586063 40 30 C40 30.66 40 31.32 40 32 C39.34 32 38.68 32 38 32 C38 33.32 38 34.64 38 36 C34.06367913 34.63176013 31.26796943 32.83593682 28.0625 30.1875 C27.19109375 29.46949219 26.3196875 28.75148438 25.421875 28.01171875 C24.62265625 27.34785156 23.8234375 26.68398438 23 26 C22.42765625 25.55269531 21.8553125 25.10539063 21.265625 24.64453125 C17.69429685 21.83163031 14.80221641 18.63434358 11.87109375 15.1875 C9.21854903 12.08640388 6.45457892 9.08790939 3.69921875 6.078125 C2.09737231 4.11908522 1.02239936 2.30429094 0 0 Z " fill="#E0A851" transform="translate(567,723)"/>
<path d="M0 0 C0.33 0 0.66 0 1 0 C1 26.4 1 52.8 1 80 C0.34 80 -0.32 80 -1 80 C-1 80.99 -1 81.98 -1 83 C-1.66 83 -2.32 83 -3 83 C-2.86042877 82.1803476 -2.72085754 81.36069519 -2.57705688 80.51620483 C-1.09918737 71.16547459 -0.66066033 61.99270441 -0.5859375 52.5390625 C-0.56716971 51.01206482 -0.54759242 49.48507691 -0.5272522 47.95809937 C-0.47651623 43.98976469 -0.43658244 40.02139659 -0.39910889 36.05291748 C-0.35869631 31.98311502 -0.3077765 27.91344443 -0.2578125 23.84375 C-0.16174902 15.89592434 -0.07712806 7.9480319 0 0 Z " fill="#E2AE5D" transform="translate(380,360)"/>
<path d="M0 0 C0.33 0 0.66 0 1 0 C1.00586624 0.86586227 1.01173248 1.73172455 1.01777649 2.62382507 C1.07571714 10.78990929 1.14780175 18.95572039 1.23571491 27.12153912 C1.28041317 31.31953188 1.31967037 35.51742773 1.34643555 39.71557617 C1.37247416 43.76820995 1.41288017 47.82047065 1.46318626 51.87287331 C1.47985128 53.41774665 1.49136785 54.96268452 1.49761391 56.50763512 C1.50725932 58.6743504 1.53532169 60.84011205 1.56762695 63.0065918 C1.58428154 64.85525093 1.58428154 64.85525093 1.60127258 66.74125671 C2.03354847 70.27418698 2.85654714 72.18411597 5 75 C7.23837799 76.01674712 7.23837799 76.01674712 9.6875 76.3125 C10.49574219 76.45300781 11.30398438 76.59351563 12.13671875 76.73828125 C13.05904297 76.86783203 13.05904297 76.86783203 14 77 C14 77.33 14 77.66 14 78 C8.84077625 79.13677812 8.84077625 79.13677812 6 79 C3.25933776 76.84245739 1.55603498 75.11206995 0 72 C-0.09208458 69.72273826 -0.11749598 67.44269353 -0.11352539 65.16357422 C-0.11374443 64.10975052 -0.11374443 64.10975052 -0.1139679 63.03463745 C-0.11327014 60.70795627 -0.10548419 58.38135473 -0.09765625 56.0546875 C-0.09579158 54.44328861 -0.09436791 52.83188916 -0.09336853 51.2204895 C-0.0895472 46.97571248 -0.07972018 42.73096958 -0.06866455 38.48620605 C-0.05844218 34.15617332 -0.05386914 29.82613507 -0.04882812 25.49609375 C-0.03809758 16.99738016 -0.02102575 8.49869432 0 0 Z " fill="#E5AF5D" transform="translate(698,480)"/>
<path d="M0 0 C2 3 2 3 2 6 C3.65 5.67 5.3 5.34 7 5 C6.85046875 5.56976562 6.7009375 6.13953125 6.546875 6.7265625 C4.92326823 13.4761278 4.39045757 17.81221298 8 24 C8.80692568 26.23551348 9.51727097 28.49206892 10.234375 30.7578125 C10.95176767 32.85874817 11.80320311 34.80701204 12.75 36.8125 C14.05483179 40.13982105 14.02866653 40.79584277 13 44 C6.57590888 30.60508659 -0.53673366 15.16978827 0 0 Z " fill="#E7AF58" transform="translate(543,661)"/>
<path d="M0 0 C10 2 10 2 12.296875 2.5546875 C16.06000931 3.17462581 19.7544088 3.1906927 23.5625 3.1875 C24.35446777 3.18814453 25.14643555 3.18878906 25.96240234 3.18945312 C32.44715941 3.13161219 38.65870638 2.39259781 45 1 C45 1.99 45 2.98 45 4 C37.8668439 5.71979056 31.19766008 6.25870025 23.875 6.125 C22.91851563 6.11597656 21.96203125 6.10695313 20.9765625 6.09765625 C18.65076475 6.07439827 16.32552706 6.04172213 14 6 C14 5.34 14 4.68 14 4 C13.11248047 4.05220703 13.11248047 4.05220703 12.20703125 4.10546875 C7.28073029 4.27423273 4.01124906 4.23487828 0 1 C0 0.67 0 0.34 0 0 Z " fill="#F0B760" transform="translate(674,685)"/>
<path d="M0 0 C2.89783847 2.89783847 3.18046118 6.3615668 4 10.25 C4.17370117 11.06194824 4.34740234 11.87389648 4.52636719 12.71044922 C7.15527164 25.2606319 8.2989658 37.21090736 8 50 C7.67 50 7.34 50 7 50 C6.9498877 49.43490723 6.89977539 48.86981445 6.84814453 48.28759766 C6.61633728 45.73246147 6.3708421 43.17882238 6.125 40.625 C6.04636719 39.73554688 5.96773438 38.84609375 5.88671875 37.9296875 C5.80292969 37.07890625 5.71914063 36.228125 5.6328125 35.3515625 C5.55949707 34.56604004 5.48618164 33.78051758 5.41064453 32.97119141 C5.14115409 30.77579774 5.14115409 30.77579774 3 29 C3.03287583 26.27130593 3.56397771 23.7033382 4 21 C3.34 20.67 2.68 20.34 2 20 C1.62109375 17.8125 1.62109375 17.8125 1.4375 15 C1.3653125 14.01386719 1.293125 13.02773438 1.21875 12.01171875 C1.1465625 11.01785156 1.074375 10.02398437 1 9 C0.69066149 5.99683865 0.3441973 2.99943357 0 0 Z " fill="#DDAA5B" transform="translate(481,302)"/>
<path d="M0 0 C9.23375915 1.83410285 16.97571007 9.14844005 24 15 C24.63550781 15.50015625 25.27101563 16.0003125 25.92578125 16.515625 C28.60054429 18.63500765 29.89545405 19.68636216 31 23 C30.01 23 29.02 23 28 23 C27.67 22.67 27.34 22.34 27 22 C26.34 22.66 25.68 23.32 25 24 C24.4375 22.0625 24.4375 22.0625 24 20 C24.33 19.67 24.66 19.34 25 19 C24.01 18.34 23.02 17.68 22 17 C22 16.34 22 15.68 22 15 C21.113125 14.773125 20.22625 14.54625 19.3125 14.3125 C15.49186253 12.79866251 13.89034546 10.89034546 11 8 C7.44866721 5.77887026 3.74425964 3.87212982 0 2 C0 1.34 0 0.68 0 0 Z " fill="#E2B05D" transform="translate(426,236)"/>
<path d="M0 0 C1.06845406 0.01441132 1.06845406 0.01441132 2.15849304 0.02911377 C4.51770779 0.06214871 6.87673994 0.10246377 9.23583984 0.14282227 C10.86965283 0.167119 12.50347262 0.19096278 14.13729858 0.21437073 C18.4413221 0.27725615 22.74522561 0.34631013 27.0491333 0.41662598 C31.43943813 0.48726921 35.82982818 0.55211016 40.22021484 0.61743164 C48.83749668 0.74650143 57.45466041 0.88208452 66.07177734 1.02172852 C66.07177734 1.35172852 66.07177734 1.68172852 66.07177734 2.02172852 C64.72873787 2.03718971 64.72873787 2.03718971 63.35856628 2.05296326 C54.92708454 2.15087741 46.49567388 2.25338324 38.06431103 2.36106777 C33.72950469 2.41626894 29.39469157 2.4696845 25.05981445 2.51904297 C20.87765415 2.56672786 16.69557591 2.61907222 12.51351357 2.67466927 C10.91672111 2.69507411 9.31990616 2.71379029 7.72307396 2.73080254 C5.48920936 2.75488795 3.25549958 2.78493679 1.02172852 2.81640625 C-0.25068192 2.83195053 -1.52309235 2.84749481 -2.83406067 2.86351013 C-5.96471209 2.88535387 -5.96471209 2.88535387 -8.92822266 4.02172852 C-8.92822266 3.03172852 -8.92822266 2.04172852 -8.92822266 1.02172852 C-5.95480176 -0.46498193 -3.31620796 -0.05128157 0 0 Z " fill="#1A0A00" transform="translate(189.92822265625,215.978271484375)"/>
<path d="M0 0 C0 3 0 3 -1.29760742 4.39453125 C-1.89420166 4.86246094 -2.4907959 5.33039062 -3.10546875 5.8125 C-3.75966797 6.33070313 -4.41386719 6.84890625 -5.08789062 7.3828125 C-6.12719727 8.18332031 -6.12719727 8.18332031 -7.1875 9 C-7.86103516 9.53367187 -8.53457031 10.06734375 -9.22851562 10.6171875 C-18.6406833 18 -18.6406833 18 -23 18 C-23 17.01 -23 16.02 -23 15 C-21.906875 14.566875 -20.81375 14.13375 -19.6875 13.6875 C-16.87429624 12.48184124 -14.98486073 11.38183288 -13 9 C-12 8 -11 7 -10 6 C-10.33 5.34 -10.66 4.68 -11 4 C-9.9275 3.896875 -8.855 3.79375 -7.75 3.6875 C-4.14179128 3.02599507 -2.63604977 2.42516579 0 0 Z " fill="#E3AC54" transform="translate(807,742)"/>
<path d="M0 0 C-0.66 1.65 -1.32 3.3 -2 5 C-2.66 4.67 -3.32 4.34 -4 4 C-5.74581437 4.74402375 -5.74581437 4.74402375 -7.625 5.875 C-11.81594787 8.10096132 -15.28939462 8.66352819 -20 9 C-17.41067201 6.10709563 -14.43696981 4.24874487 -11.125 2.25 C-10.09632813 1.61578125 -9.06765625 0.9815625 -8.0078125 0.328125 C-4.70436702 -1.13053924 -3.36771086 -1.11842796 0 0 Z " fill="#EDAC49" transform="translate(617,231)"/>
<path d="M0 0 C-0.37390532 2.57334835 -0.6967231 3.73073547 -2.671875 5.484375 C-9.57875345 9.69081977 -9.57875345 9.69081977 -14 9 C-14.33 9.66 -14.66 10.32 -15 11 C-16.65 10.67 -18.3 10.34 -20 10 C-18.10060262 8.10060262 -16.73748786 7.24004931 -14.375 6.0546875 C-13.66859375 5.70019531 -12.9621875 5.34570312 -12.234375 4.98046875 C-11.49703125 4.61566406 -10.7596875 4.25085938 -10 3.875 C-9.26265625 3.50246094 -8.5253125 3.12992188 -7.765625 2.74609375 C-2.2533196 0 -2.2533196 0 0 0 Z " fill="#200F05" transform="translate(432,541)"/>
<path d="M0 0 C0.33 0 0.66 0 1 0 C0.36927368 6.13717968 -0.85102032 11.91760692 -2.4375 17.875 C-2.65470703 18.72835938 -2.87191406 19.58171875 -3.09570312 20.4609375 C-3.31033203 21.275625 -3.52496094 22.0903125 -3.74609375 22.9296875 C-3.93872803 23.66429199 -4.1313623 24.39889648 -4.32983398 25.15576172 C-5 27 -5 27 -7 29 C-7.33422792 24.54362774 -6.48648169 21.52042521 -4.79296875 17.42578125 C-3.44739929 13.30953182 -3.04949156 9.04439738 -2.52734375 4.7578125 C-2 2 -2 2 0 0 Z " fill="#E7B25D" transform="translate(486,451)"/>
<path d="M0 0 C2.97973615 -0.08184423 5.95716832 -0.14089764 8.9375 -0.1875 C9.76830078 -0.21263672 10.59910156 -0.23777344 11.45507812 -0.26367188 C17.50202899 -0.33425885 22.39516349 0.74535602 28 3 C28 3.33 28 3.66 28 4 C26.72125 3.855625 25.4425 3.71125 24.125 3.5625 C16.10482119 2.75121024 8.04848482 2.4120684 0 2 C0 1.34 0 0.68 0 0 Z " fill="#E9B160" transform="translate(688,301)"/>
<path d="M0 0 C7.26 0 14.52 0 22 0 C22 0.99 22 1.98 22 3 C14.41 3.33 6.82 3.66 -1 4 C-0.67 2.68 -0.34 1.36 0 0 Z " fill="#F8AC41" transform="translate(706,475)"/>
<path d="M0 0 C-2.74093665 1.8272911 -5.13825324 2.93698178 -8.1875 4.125 C-9.08855469 4.47820312 -9.98960937 4.83140625 -10.91796875 5.1953125 C-11.60503906 5.46085938 -12.29210937 5.72640625 -13 6 C-13 6.66 -13 7.32 -13 8 C-13.53625 7.79375 -14.0725 7.5875 -14.625 7.375 C-17.14042413 6.79107629 -17.14042413 6.79107629 -20 8 C-23.13349732 9.04449911 -23.98968256 8.93423645 -27 8 C-24.08489248 6.85017194 -21.16765566 5.70584512 -18.25 4.5625 C-17.425 4.23701172 -16.6 3.91152344 -15.75 3.57617188 C-14.95078125 3.26357422 -14.1515625 2.95097656 -13.328125 2.62890625 C-12.5949707 2.34088135 -11.86181641 2.05285645 -11.10644531 1.75610352 C-7.27975642 0.38252268 -4.07497995 -0.11319389 0 0 Z " fill="#E8B25E" transform="translate(641,221)"/>
<path d="M0 0 C1.65 0 3.3 0 5 0 C5.28875 0.9075 5.5775 1.815 5.875 2.75 C6.76531776 5.32202908 7.71494413 7.61346766 9 10 C9.66 10 10.32 10 11 10 C12.7265625 11.75 12.7265625 11.75 14.625 14 C15.25664063 14.7425 15.88828125 15.485 16.5390625 16.25 C17.26222656 17.11625 17.26222656 17.11625 18 18 C17.67 18.66 17.34 19.32 17 20 C4.14578588 7.69931663 4.14578588 7.69931663 0 0 Z " fill="#E8B15B" transform="translate(567,723)"/>
<path d="M0 0 C-0.33 0.99 -0.66 1.98 -1 3 C-1.66 2.67 -2.32 2.34 -3 2 C-3.25910156 2.57363281 -3.51820313 3.14726562 -3.78515625 3.73828125 C-5.10190603 6.18972216 -6.60964713 8.09234822 -8.4375 10.1875 C-9.33275391 11.22970703 -9.33275391 11.22970703 -10.24609375 12.29296875 C-12 14 -12 14 -15 15 C-13.04465538 8.95620753 -7.19134147 0 0 0 Z " fill="#2A1606" transform="translate(672,309)"/>
<path d="M0 0 C5.50443849 6.60532619 11 17.3679816 11 26 C10.34 26 9.68 26 9 26 C8.68546875 25.16597656 8.3709375 24.33195312 8.046875 23.47265625 C5.78130171 17.51529034 3.48444082 11.63791963 0.69921875 5.90234375 C0 4 0 4 0 0 Z " fill="#E0AB5C" transform="translate(830,280)"/>
<path d="M0 0 C0.93423645 3.01031744 1.04449911 3.86650268 0 7 C-4.31818182 11.77272727 -4.31818182 11.77272727 -8 13 C-8.598125 13.66 -9.19625 14.32 -9.8125 15 C-12.50439953 17.46116528 -14.42715954 17.67519632 -18 18 C-17.443125 17.5875 -16.88625 17.175 -16.3125 16.75 C-14.63388406 15.47969605 -12.99217853 14.16014877 -11.375 12.8125 C-9 11 -9 11 -7 11 C-6.67 10.01 -6.34 9.02 -6 8 C-5.34 8 -4.68 8 -4 8 C-3.71125 7.236875 -3.4225 6.47375 -3.125 5.6875 C-2 3 -2 3 0 0 Z " fill="#D4A155" transform="translate(740,667)"/>
<path d="M0 0 C0.9435441 2.53899138 1.16906025 3.60909275 0.07421875 6.140625 C-0.61220703 7.18476563 -0.61220703 7.18476563 -1.3125 8.25 C-1.76238281 8.95640625 -2.21226562 9.6628125 -2.67578125 10.390625 C-3.11277344 10.92171875 -3.54976562 11.4528125 -4 12 C-4.66 12 -5.32 12 -6 12 C-6 13.32 -6 14.64 -6 16 C-6.66 16 -7.32 16 -8 16 C-8.33 17.65 -8.66 19.3 -9 21 C-9.99 21.33 -10.98 21.66 -12 22 C-10.4311796 17.70208577 -8.29149693 13.81869942 -6 9.875 C-5.64421875 9.25496094 -5.2884375 8.63492187 -4.921875 7.99609375 C-3.35227431 5.27271942 -1.74424206 2.61636308 0 0 Z " fill="#D8A758" transform="translate(567,268)"/>
<path d="M0 0 C0.66 0.33 1.32 0.66 2 1 C1.835 1.556875 1.67 2.11375 1.5 2.6875 C0.95958649 5.18691249 0.92917935 7.45045662 1 10 C0.67 10 0.34 10 0 10 C-0.33 17.92 -0.66 25.84 -1 34 C-1.33 34 -1.66 34 -2 34 C-2.04962653 29.96154588 -2.08582632 25.92321113 -2.10986328 21.88452148 C-2.11988926 20.51209417 -2.13351356 19.13968805 -2.15087891 17.76733398 C-2.17527627 15.78899473 -2.18544484 13.81049633 -2.1953125 11.83203125 C-2.20578613 10.64327393 -2.21625977 9.4545166 -2.22705078 8.22973633 C-2.00370033 5.05263614 -1.36116639 2.85656545 0 0 Z " fill="#F5AB42" transform="translate(702,478)"/>
<path d="M0 0 C0.66 0.33 1.32 0.66 2 1 C0.42545856 5.84591879 -1.32419577 10.61019264 -3.125 15.375 C-3.40214844 16.11105469 -3.67929687 16.84710938 -3.96484375 17.60546875 C-4.64222223 19.40402539 -5.32097033 21.2020661 -6 23 C-7.52303832 17.57202883 -6.00777886 13.19660411 -4 8 C-3.34 7.67 -2.68 7.34 -2 7 C-1.26924352 4.6859378 -0.59861742 2.35171131 0 0 Z " fill="#2B1807" transform="translate(553,289)"/>
<path d="M0 0 C0.66 0.33 1.32 0.66 2 1 C-1.60855859 5.59271093 -6.50180592 7.50049252 -12 9 C-15.3686933 9.29292985 -18.63079899 9.25806646 -22 9 C-22 8.67 -22 8.34 -22 8 C-20.91460937 7.75765625 -19.82921875 7.5153125 -18.7109375 7.265625 C-17.26547493 6.92772466 -15.82017061 6.58914687 -14.375 6.25 C-13.66214844 6.09273438 -12.94929688 5.93546875 -12.21484375 5.7734375 C-7.3716442 4.61817889 -3.98600118 2.99264442 0 0 Z " fill="#D7A659" transform="translate(358,466)"/>
<path d="M0 0 C0 0.99 0 1.98 0 3 C-9.66543055 4.1922117 -19.28175551 4.09622024 -29 4 C-29 3.67 -29 3.34 -29 3 C-27.88882813 2.95101562 -26.77765625 2.90203125 -25.6328125 2.8515625 C-18.22788523 2.4910978 -11.02898654 2.10458174 -3.78515625 0.40234375 C-2 0 -2 0 0 0 Z " fill="#D5A35A" transform="translate(719,686)"/>
<path d="M0 0 C1.32 0.33 2.64 0.66 4 1 C3.67 2.65 3.34 4.3 3 6 C3.66 6 4.32 6 5 6 C4.67 7.65 4.34 9.3 4 11 C4.66 11 5.32 11 6 11 C5.67 13.31 5.34 15.62 5 18 C3.31099986 14.89370844 2.29373333 11.84794949 1.375 8.4375 C1.11460937 7.48746094 0.85421875 6.53742188 0.5859375 5.55859375 C0 3 0 3 0 0 Z " fill="#160B03" transform="translate(840,300)"/>
<path d="M0 0 C3.4318048 1.40949126 5.15410207 2.62242248 7.5 5.4375 C4.3568669 7.00906655 2.134536 5.55455576 -1.125 4.5 C-2.31351563 4.11972656 -3.50203125 3.73945313 -4.7265625 3.34765625 C-5.64179687 3.04730469 -6.55703125 2.74695313 -7.5 2.4375 C-3.9375 -0.6328125 -3.9375 -0.6328125 0 0 Z " fill="#251508" transform="translate(761.5,218.5625)"/>
<path d="M0 0 C0.99 0.33 1.98 0.66 3 1 C3 1.66 3 2.32 3 3 C2.401875 3.433125 1.80375 3.86625 1.1875 4.3125 C-1.32708737 6.25232454 -2.50149792 8.22777115 -4 11 C-5.32 10.34 -6.64 9.68 -8 9 C-5.36 6.03 -2.72 3.06 0 0 Z " fill="#190C04" transform="translate(818,732)"/>
<path d="M0 0 C0.66 0 1.32 0 2 0 C-0.16163513 6.93998648 -2.8936214 13.43117569 -6 20 C-6.66 19.67 -7.32 19.34 -8 19 C-6.71144097 14.70480323 -4.99493155 10.87167664 -2.953125 6.90234375 C-1.82581771 4.65234929 -0.88335259 2.3556069 0 0 Z " fill="#E3B05E" transform="translate(839,692)"/>
<path d="M0 0 C-1.33333333 0.66666667 -2.66666667 1.33333333 -4 2 C-4.969375 2.556875 -5.93875 3.11375 -6.9375 3.6875 C-10.33011515 5.14147792 -11.57517681 5.20331626 -15 4 C-15.99 3.34 -16.98 2.68 -18 2 C-11.88019467 0.59545452 -6.28260706 -0.23268915 0 0 Z " fill="#E6AD59" transform="translate(668,215)"/>
<path d="M0 0 C0.99 0.33 1.98 0.66 3 1 C0.03 4.96 0.03 4.96 -3 9 C-3.99 8.67 -4.98 8.34 -6 8 C-5.67 6.02 -5.34 4.04 -5 2 C-3.68 1.67 -2.36 1.34 -1 1 C-0.67 1.66 -0.34 2.32 0 3 C0 2.01 0 1.02 0 0 Z " fill="#ECAE4E" transform="translate(463,507)"/>
<path d="M0 0 C1.32 0.66 2.64 1.32 4 2 C3.071875 3.7325 3.071875 3.7325 2.125 5.5 C0.05877782 9.60313625 -1.03935718 13.51700017 -2 18 C-2.33 18 -2.66 18 -3 18 C-3.42765417 11.58518742 -1.85743168 6.11404596 0 0 Z " fill="#E7B15B" transform="translate(653,322)"/>
<path d="M0 0 C0 0.99 0 1.98 0 3 C-1.91635217 3.05423638 -3.83314925 3.09289963 -5.75 3.125 C-7.35101563 3.15980469 -7.35101563 3.15980469 -8.984375 3.1953125 C-11.92470106 3.00487687 -13.52361878 2.52670104 -16 1 C-10.59255982 0.22750855 -5.46137814 -0.09752461 0 0 Z " fill="#130501" transform="translate(376,561)"/>
<path d="M0 0 C4.98012761 1.50912958 8.24259942 4.55661849 12 8 C11.01 8.33 10.02 8.66 9 9 C8.01 8.34 7.02 7.68 6 7 C5.319375 6.731875 4.63875 6.46375 3.9375 6.1875 C1.32435572 4.58589544 0.90225017 2.85712552 0 0 Z " fill="#E4AB57" transform="translate(792,238)"/>
<path d="M0 0 C0.33 0 0.66 0 1 0 C1.33 1.98 1.66 3.96 2 6 C2.99 5.01 3.98 4.02 5 3 C4.67 6.3 4.34 9.6 4 13 C3.01 13 2.02 13 1 13 C0.67 12.01 0.34 11.02 0 10 C0.33 9.34 0.66 8.68 1 8 C0.34 8 -0.32 8 -1 8 C-0.67 5.36 -0.34 2.72 0 0 Z " fill="#EBAB4A" transform="translate(546,312)"/>
<path d="M0 0 C-0.56847656 0.24234375 -1.13695312 0.4846875 -1.72265625 0.734375 C-5.57678196 2.40728432 -9.31704469 4.11133441 -12.9375 6.25 C-16 8 -16 8 -18 8 C-17 5 -17 5 -15.36328125 3.90234375 C-4.13744076 -1.37914692 -4.13744076 -1.37914692 0 0 Z " fill="#E5B05F" transform="translate(683,304)"/>
<path d="M0 0 C0.99 0 1.98 0 3 0 C3 0.66 3 1.32 3 2 C3.9075 2.2475 4.815 2.495 5.75 2.75 C9.10351489 4.03981342 10.67708236 5.31971042 13 8 C7.98491285 6.45941767 3.3852919 4.97068161 -1 2 C-0.67 1.34 -0.34 0.68 0 0 Z " fill="#D5A256" transform="translate(610,760)"/>
<path d="M0 0 C0.33 0 0.66 0 1 0 C1.32297455 6.05278224 1.52333984 10.78023727 -2 16 C-2.99 16.66 -3.98 17.32 -5 18 C-4.80664062 17.45472656 -4.61328125 16.90945313 -4.4140625 16.34765625 C-2.55239547 10.9561948 -1.12344334 5.59078274 0 0 Z " fill="#D7A857" transform="translate(746,648)"/>
<path d="M0 0 C2.09854073 2.09854073 2.88501458 3.67976721 4.0625 6.375 C4.40410156 7.14585937 4.74570312 7.91671875 5.09765625 8.7109375 C5.92068218 10.79878684 6.51546257 12.81208872 7 15 C5.68 14.34 4.36 13.68 3 13 C3 12.01 3 11.02 3 10 C2.01 10.495 2.01 10.495 1 11 C0.67 7.37 0.34 3.74 0 0 Z " fill="#301D0A" transform="translate(552,696)"/>
<path d="M0 0 C0.33 0 0.66 0 1 0 C1.33 4.29 1.66 8.58 2 13 C1.34 13 0.68 13 0 13 C0 15.64 0 18.28 0 21 C-0.66 21 -1.32 21 -2 21 C-1.01 10.605 -1.01 10.605 0 0 Z " fill="#311A05" transform="translate(851,643)"/>
<path d="M0 0 C5.52326557 2.4547847 9.17209557 5.64186529 12 11 C11.01 11 10.02 11 9 11 C7.63360658 9.3603279 6.3050581 7.68889872 5 6 C4.0925 5.278125 3.185 4.55625 2.25 3.8125 C1.5075 3.214375 0.765 2.61625 0 2 C0 1.34 0 0.68 0 0 Z " fill="#E3AD5A" transform="translate(359,313)"/>
<path d="M0 0 C1.90747183 2.86120775 3.00353706 5.35254993 4.1875 8.5625 C4.55230469 9.53316406 4.91710937 10.50382813 5.29296875 11.50390625 C6 14 6 14 5 16 C1.88558086 11.01692938 0.09781899 6.78850013 -1 1 C-0.67 0.67 -0.34 0.34 0 0 Z " fill="#2F1A08" transform="translate(652,653)"/>
<path d="M0 0 C0.66 0 1.32 0 2 0 C1.29445932 3.66881155 -0.27735506 6.70450534 -2 10 C-3.32 9.67 -4.64 9.34 -6 9 C-5.05016642 7.49460339 -4.08988109 5.99579653 -3.125 4.5 C-2.59132813 3.6646875 -2.05765625 2.829375 -1.5078125 1.96875 C-0.76144531 0.99421875 -0.76144531 0.99421875 0 0 Z " fill="#D19D50" transform="translate(373,450)"/>
<path d="M0 0 C0.33 0.66 0.66 1.32 1 2 C1.66 2 2.32 2 3 2 C3 2.66 3 3.32 3 4 C1.02 4.33 -0.96 4.66 -3 5 C-1.125 1.125 -1.125 1.125 0 0 Z M-4 5 C-3 7 -3 7 -3.75 9.5625 C-5 12 -5 12 -8 13 C-6.87548273 10.0280615 -5.77706209 7.66559313 -4 5 Z " fill="#F5AD43" transform="translate(571,267)"/>
<path d="M0 0 C0.33 0.99 0.66 1.98 1 3 C1.66 3.33 2.32 3.66 3 4 C2.113125 4.268125 1.22625 4.53625 0.3125 4.8125 C-3.00632551 5.87472632 -3.00632551 5.87472632 -5.75 7.6875 C-6.4925 8.120625 -7.235 8.55375 -8 9 C-8.66 8.67 -9.32 8.34 -10 8 C-8.71064081 6.85157077 -7.41843421 5.70633773 -6.125 4.5625 C-5.04605469 3.60537109 -5.04605469 3.60537109 -3.9453125 2.62890625 C-2 1 -2 1 0 0 Z " fill="#E3AD5A" transform="translate(596,240)"/>
<path d="M0 0 C3.14737182 0.69941596 6.02588876 1.76078698 9 3 C6.4345406 5.5654594 4.52313332 5.54046087 1 6 C0.67 4.02 0.34 2.04 0 0 Z " fill="#E0A54E" transform="translate(667,681)"/>
<path d="M0 0 C-3.3 2.31 -6.6 4.62 -10 7 C-10 5.33333333 -10 3.66666667 -10 2 C-9.34 2 -8.68 2 -8 2 C-7.67 1.34 -7.34 0.68 -7 0 C-4.0262656 -1.09036928 -3.11592499 -1.03864166 0 0 Z " fill="#E8AE5C" transform="translate(443,533)"/>
<path d="M0 0 C1.32 0.33 2.64 0.66 4 1 C3.67 2.32 3.34 3.64 3 5 C2.34 5 1.68 5 1 5 C0.67 6.65 0.34 8.3 0 10 C-0.99 10.33 -1.98 10.66 -3 11 C-2.01 7.37 -1.02 3.74 0 0 Z " fill="#DEA64C" transform="translate(550,300)"/>
<path d="M0 0 C0.66 0.33 1.32 0.66 2 1 C1.01 2.485 1.01 2.485 0 4 C-0.33 4.99 -0.66 5.98 -1 7 C-2.875 8.25 -2.875 8.25 -5 9 C-5.99 8.67 -6.98 8.34 -8 8 C-5.36 5.36 -2.72 2.72 0 0 Z " fill="#DBA351" transform="translate(584,249)"/>
<path d="M0 0 C10.55808656 5.0022779 10.55808656 5.0022779 15 9 C10.14036821 8.39254603 6.2594482 6.27241033 2 4 C2 3.34 2 2.68 2 2 C1.34 2 0.68 2 0 2 C0 1.34 0 0.68 0 0 Z " fill="#E3B15E" transform="translate(777,229)"/>
<path d="M0 0 C-5.01654669 3.34436446 -10.58540366 5.20815486 -16.625 4.6875 C-17.40875 4.460625 -18.1925 4.23375 -19 4 C-19 3.67 -19 3.34 -19 3 C-16.77228658 2.49356447 -14.54275924 1.9951038 -12.3125 1.5 C-10.45044922 1.08234375 -10.45044922 1.08234375 -8.55078125 0.65625 C-5.57601782 0.10645874 -3.00631398 -0.13795705 0 0 Z " fill="#1E0D03" transform="translate(752,775)"/>
<path d="M0 0 C3.63 0 7.26 0 11 0 C11 0.99 11 1.98 11 3 C8.00468461 3.99843846 6.82744268 4.00732761 3.8125 3.5625 C2.554375 3.376875 1.29625 3.19125 0 3 C0 2.01 0 1.02 0 0 Z " fill="#F7AA3F" transform="translate(832,475)"/>
<path d="M0 0 C0.66 0 1.32 0 2 0 C2 0.99 2 1.98 2 3 C2.86625 3.37125 2.86625 3.37125 3.75 3.75 C6.3002997 5.16683317 8.01785701 6.87627537 10 9 C9.67 9.99 9.34 10.98 9 12 C5.66666667 8.66666667 2.33333333 5.33333333 -1 2 C-0.67 1.34 -0.34 0.68 0 0 Z " fill="#E3AD5B" transform="translate(725,308)"/>
<path d="M0 0 C0.99 0.33 1.98 0.66 3 1 C-1.46153846 7.92307692 -1.46153846 7.92307692 -4 10 C-4.66 10 -5.32 10 -6 10 C-6 9.34 -6 8.68 -6 8 C-5.34 8 -4.68 8 -4 8 C-3.71125 7.236875 -3.4225 6.47375 -3.125 5.6875 C-2 3 -2 3 0 0 Z " fill="#E1AA56" transform="translate(815,731)"/>
<path d="M0 0 C-2.40118527 2.40118527 -4.05496042 2.75220861 -7.3125 3.625 C-8.72982422 4.01558594 -8.72982422 4.01558594 -10.17578125 4.4140625 C-12.87851902 4.97479648 -15.25031848 5.1101876 -18 5 C-15.00120785 3.00080524 -12.40906589 2.08799975 -9 1 C-6.04335481 -0.4783226 -3.25770263 -0.06032783 0 0 Z " fill="#281304" transform="translate(354,469)"/>
<path d="M0 0 C2.25170312 2.25170312 2.51474 3.32987578 3.1875 6.375 C3.45626953 7.53128906 3.45626953 7.53128906 3.73046875 8.7109375 C4.01304909 11.11082272 3.73503321 12.71670535 3 15 C2.34 14.67 1.68 14.34 1 14 C1.33 11.69 1.66 9.38 2 7 C1.01 6.67 0.02 6.34 -1 6 C-0.67 4.02 -0.34 2.04 0 0 Z " fill="#2C1907" transform="translate(739,330)"/>
<path d="M0 0 C2.64 0.99 5.28 1.98 8 3 C8 3.33 8 3.66 8 4 C4.7 4.33 1.4 4.66 -2 5 C-2 4.01 -2 3.02 -2 2 C-1.34 2 -0.68 2 0 2 C0 1.34 0 0.68 0 0 Z " fill="#E9AD51" transform="translate(766,224)"/>
<path d="M0 0 C3.2441189 1.04275251 4.60194664 2.61240491 6.3125 5.4375 C8 9 8 9 7 12 C6.0165504 10.56542672 5.03839079 9.12722594 4.0625 7.6875 C3.51722656 6.88699219 2.97195313 6.08648438 2.41015625 5.26171875 C1 3 1 3 0 0 Z " fill="#E2AE5D" transform="translate(559,710)"/>
<path d="M0 0 C0.66 0.33 1.32 0.66 2 1 C-0.15341406 3.34917898 -2.21667937 4.82443004 -5.0625 6.25 C-5.75472656 6.60578125 -6.44695313 6.9615625 -7.16015625 7.328125 C-7.76730469 7.54984375 -8.37445312 7.7715625 -9 8 C-9.66 7.67 -10.32 7.34 -11 7 C-9.21475351 5.80286983 -7.4215972 4.61752721 -5.625 3.4375 C-4.62726562 2.77621094 -3.62953125 2.11492187 -2.6015625 1.43359375 C-1.74304688 0.96050781 -0.88453125 0.48742187 0 0 Z " fill="#D4A55A" transform="translate(608,232)"/>
<path d="M0 0 C6.64615385 1.47692308 6.64615385 1.47692308 8.4375 4.125 C8.7159375 5.053125 8.7159375 5.053125 9 6 C5.27566618 4.7874262 1.62197194 3.49140021 -2 2 C-1.34 1.34 -0.68 0.68 0 0 Z " fill="#200F05" transform="translate(673,681)"/>
<path d="M0 0 C3 1 3 1 4.1328125 2.890625 C7.4576768 10.79699524 7.4576768 10.79699524 8 15 C5.36044668 13.68022334 5.1389391 12.43718443 4 9.75 C3.65453125 8.94175781 3.3090625 8.13351562 2.953125 7.30078125 C1.94816721 4.87487904 0.94793648 2.4488359 0 0 Z " fill="#E5B361" transform="translate(370,325)"/>
<path d="M0 0 C1 3 1 3 0.375 5 C-1.36380086 7.52916489 -3.31063318 8.58454378 -6 10 C-4.34832443 6.4213696 -2.21713508 3.25179812 0 0 Z " fill="#331E0A" transform="translate(831,714)"/>
<path d="M0 0 C2.45823172 3.68734758 3.01242616 6.69699971 4 11 C3.34 11 2.68 11 2 11 C2 10.34 2 9.68 2 9 C1.34 9 0.68 9 0 9 C-0.84454356 5.62182575 -1.10844919 3.32534757 0 0 Z " fill="#2F1C0B" transform="translate(547,682)"/>
<path d="M0 0 C-1.15173355 2.46800047 -2.04783565 4.04783565 -4 6 C-5.98821313 6.39764263 -7.98944339 6.73775349 -10 7 C-3.18421053 0 -3.18421053 0 0 0 Z " fill="#2B1706" transform="translate(442,534)"/>
<path d="M0 0 C0.66 0 1.32 0 2 0 C2.33 0.99 2.66 1.98 3 3 C0.69 4.98 -1.62 6.96 -4 9 C-3.0816323 5.32652921 -2.1301794 3.06745834 0 0 Z " fill="#E5AB54" transform="translate(453,518)"/>
<path d="M0 0 C0.33 0.66 0.66 1.32 1 2 C1.66 2.33 2.32 2.66 3 3 C2 5 2 5 -1.0625 6.125 C-2.5165625 6.558125 -2.5165625 6.558125 -4 7 C-4.66 6.34 -5.32 5.68 -6 5 C-4.02 3.35 -2.04 1.7 0 0 Z " fill="#E1A952" transform="translate(366,460)"/>
<path d="M0 0 C0.33 0 0.66 0 1 0 C1 3.63 1 7.26 1 11 C0.01 11.495 0.01 11.495 -1 12 C-2.11658501 7.31034294 -1.80619523 4.46236469 0 0 Z " fill="#2C1B09" transform="translate(653,330)"/>
<path d="M0 0 C0.99 0.33 1.98 0.66 3 1 C4.1875 4.0625 4.1875 4.0625 5 7 C3.35 6.67 1.7 6.34 0 6 C0 4.02 0 2.04 0 0 Z " fill="#E7AC4F" transform="translate(825,273)"/>
<path d="M0 0 C0.33 0.66 0.66 1.32 1 2 C0.70351562 2.57234375 0.40703125 3.1446875 0.1015625 3.734375 C-1.29880632 6.61456619 -1.41722918 9.06418083 -1.625 12.25 C-1.69976562 13.32765625 -1.77453125 14.4053125 -1.8515625 15.515625 C-1.90054688 16.33546875 -1.94953125 17.1553125 -2 18 C-2.33 18 -2.66 18 -3 18 C-3.0809723 15.56183415 -3.14046972 13.12635616 -3.1875 10.6875 C-3.21263672 9.99720703 -3.23777344 9.30691406 -3.26367188 8.59570312 C-3.33834499 3.44325817 -3.33834499 3.44325817 -1.48828125 1.01953125 C-0.99714844 0.68308594 -0.50601563 0.34664062 0 0 Z " fill="#EBB861" transform="translate(181,220)"/>
<path d="M0 0 C1.4540625 0.0309375 1.4540625 0.0309375 2.9375 0.0625 C-0.08137244 3.54581435 -2.63159529 4.85407144 -7.0625 6.0625 C-7.3925 5.4025 -7.7225 4.7425 -8.0625 4.0625 C-7.423125 3.588125 -6.78375 3.11375 -6.125 2.625 C-2.73364094 0.05578859 -2.73364094 0.05578859 0 0 Z " fill="#E8B05C" transform="translate(428.0625,539.9375)"/>
<path d="M0 0 C4.03384128 2.07143201 5.92856799 3.96615872 8 8 C7.34 8 6.68 8 6 8 C6 7.34 6 6.68 6 6 C5.01 6.33 4.02 6.66 3 7 C0 2.25 0 2.25 0 0 Z " fill="#241404" transform="translate(361,317)"/>
<path d="M0 0 C2.52478345 1.10490523 3.49207182 2.58438797 4.97265625 4.86328125 C3.366683 4.4113188 1.76293117 3.95145798 0.16015625 3.48828125 C-0.73316406 3.23304688 -1.62648438 2.9778125 -2.546875 2.71484375 C-5.02734375 1.86328125 -5.02734375 1.86328125 -8.02734375 -0.13671875 C-5.17073481 -1.56502322 -3.00887943 -0.64676848 0 0 Z " fill="#321E08" transform="translate(410.02734375,225.13671875)"/>
<path d="M0 0 C2.64 1.65 5.28 3.3 8 5 C7.67 5.66 7.34 6.32 7 7 C5.0625 6.6875 5.0625 6.6875 3 6 C2.67 5.01 2.34 4.02 2 3 C1.34 3 0.68 3 0 3 C0 2.01 0 1.02 0 0 Z " fill="#180C02" transform="translate(594,752)"/>
<path d="M0 0 C0.33 0 0.66 0 1 0 C2.19287411 3.87684087 3 6.91621923 3 11 C2.34 11 1.68 11 1 11 C-1.03684712 6.92630576 -1.0257259 4.41062136 0 0 Z " fill="#F4B552" transform="translate(844,325)"/>
<path d="M0 0 C-0.33 0.99 -0.66 1.98 -1 3 C-4.45925163 1.7508258 -7.14693203 0.32472205 -10 -2 C-5.82412255 -3.39195915 -3.86525224 -1.82323219 0 0 Z " fill="#211104" transform="translate(433,235)"/>
<path d="M0 0 C4.455 1.98 4.455 1.98 9 4 C8.01 4.66 7.02 5.32 6 6 C1.125 3.375 1.125 3.375 0 0 Z " fill="#140902" transform="translate(609,762)"/>
<path d="M0 0 C0.33 0.99 0.66 1.98 1 3 C0.67 3.66 0.34 4.32 0 5 C0.66 5 1.32 5 2 5 C1.67 6.65 1.34 8.3 1 10 C-1.76223278 7.23776722 -1.57856291 4.79293383 -2 1 C-1.34 0.67 -0.68 0.34 0 0 Z " fill="#E5A746" transform="translate(844,672)"/>
<path d="M0 0 C0.93423645 3.01031744 1.04449911 3.86650268 0 7 C-2.5625 8.6875 -2.5625 8.6875 -5 10 C-3.66511872 6.40608886 -2.03977277 3.24509304 0 0 Z " fill="#E7AF59" transform="translate(740,667)"/>
<path d="M0 0 C0.99 0 1.98 0 3 0 C5.27678571 8.03571429 5.27678571 8.03571429 4 12 C3.3291288 10.3767313 2.66342971 8.75132422 2 7.125 C1.62875 6.22007812 1.2575 5.31515625 0.875 4.3828125 C0 2 0 2 0 0 Z " fill="#E4AE60" transform="translate(738,326)"/>
<path d="M0 0 C0.99 0.495 0.99 0.495 2 1 C2.4140625 3.50390625 2.4140625 3.50390625 2.625 6.5625 C2.69976562 7.57441406 2.77453125 8.58632813 2.8515625 9.62890625 C2.92503906 10.80259766 2.92503906 10.80259766 3 12 C2.67 11.34 2.34 10.68 2 10 C1.34 10 0.68 10 0 10 C0 6.7 0 3.4 0 0 Z " fill="#F4AC41" transform="translate(481,310)"/>
<path d="M0 0 C0.639375 0.2475 1.27875 0.495 1.9375 0.75 C2.2675 1.74 2.5975 2.73 2.9375 3.75 C1.9475 3.75 0.9575 3.75 -0.0625 3.75 C-0.3925 3.42 -0.7225 3.09 -1.0625 2.75 C-1.7225 3.41 -2.3825 4.07 -3.0625 4.75 C-3.3925 3.43 -3.7225 2.11 -4.0625 0.75 C-2.0625 -0.25 -2.0625 -0.25 0 0 Z " fill="#E9AE51" transform="translate(454.0625,255.25)"/>
<path d="M0 0 C1.98 1.65 3.96 3.3 6 5 C4 6 2 7 0 8 C0 5.33333333 0 2.66666667 0 0 Z " fill="#321E0B" transform="translate(576,735)"/>
<path d="M0 0 C0 0.66 0 1.32 0 2 C-5.29230769 5.07692308 -5.29230769 5.07692308 -8.875 4.6875 C-9.57625 4.460625 -10.2775 4.23375 -11 4 C-7.61125486 1.74083657 -4.15175481 0 0 0 Z " fill="#220F04" transform="translate(412,551)"/>
<path d="M0 0 C0.515625 0.391875 1.03125 0.78375 1.5625 1.1875 C-1.4375 2.1875 -4.4375 3.1875 -7.4375 4.1875 C-8.0975 3.5275 -8.7575 2.8675 -9.4375 2.1875 C-3.0375 -1.0125 -3.0375 -1.0125 0 0 Z " fill="#2C1908" transform="translate(421.4375,547.8125)"/>
<path d="M0 0 C1.27350058 3.01009228 0.99687398 4.00781505 -0.25 7.125 C-2 10 -2 10 -5 12 C-3.41037341 7.96479403 -1.71767682 3.98188718 0 0 Z " fill="#301D07" transform="translate(474,492)"/>
<path d="M0 0 C1.9375 0.3125 1.9375 0.3125 4 1 C5.04449911 4.13349732 4.93423645 4.98968256 4 8 C4 7.34 4 6.68 4 6 C3.34 6 2.68 6 2 6 C1.34 4.02 0.68 2.04 0 0 Z " fill="#271706" transform="translate(824,268)"/>
<path d="M0 0 C2.97 0.33 5.94 0.66 9 1 C9.33 2.32 9.66 3.64 10 5 C6.08788267 3.84414715 3.1254959 2.64465038 0 0 Z " fill="#271403" transform="translate(770,225)"/>
<path d="M0 0 C0.66 0.33 1.32 0.66 2 1 C0.68 2.65 -0.64 4.3 -2 6 C-3.65 5.67 -5.3 5.34 -7 5 C-2.25 1.125 -2.25 1.125 0 0 Z " fill="#251404" transform="translate(790,757)"/>
<path d="M0 0 C0.66 0.33 1.32 0.66 2 1 C2 1.99 2 2.98 2 4 C-0.66666667 4.66666667 -3.33333333 5.33333333 -6 6 C-4 4 -2 2 0 0 Z " fill="#251506" transform="translate(798,751)"/>
<path d="M0 0 C0.66 0 1.32 0 2 0 C2 0.66 2 1.32 2 2 C2.66 2 3.32 2 4 2 C5.4783226 4.95664519 5.06032783 7.74229737 5 11 C3.13448574 7.41247258 1.57464072 3.72187807 0 0 Z " fill="#2D1704" transform="translate(833,285)"/>
<path d="M0 0 C0.66 0.33 1.32 0.66 2 1 C-0.97 4.96 -0.97 4.96 -4 9 C-4.33 8.01 -4.66 7.02 -5 6 C-3.59554165 3.7363436 -1.8032087 1.9791315 0 0 Z " fill="#E0B05D" transform="translate(823,723)"/>
<path d="M0 0 C0.66 0.99 1.32 1.98 2 3 C0.35 4.65 -1.3 6.3 -3 8 C-3.66 7.67 -4.32 7.34 -5 7 C-3.35 4.69 -1.7 2.38 0 0 Z " fill="#251504" transform="translate(468,504)"/>
<path d="M0 0 C0.99 0.33 1.98 0.66 3 1 C1.02 3.31 -0.96 5.62 -3 8 C-3.33 7.01 -3.66 6.02 -4 5 C-3.67 4.34 -3.34 3.68 -3 3 C-2.34 3 -1.68 3 -1 3 C-0.67 2.01 -0.34 1.02 0 0 Z " fill="#E4AE60" transform="translate(661,314)"/>
<path d="M0 0 C0 0.66 0 1.32 0 2 C-3.3 1.67 -6.6 1.34 -10 1 C-10 0.67 -10 0.34 -10 0 C-6.30458414 -0.95024979 -3.69541586 -0.95024979 0 0 Z " fill="#251407" transform="translate(752,217)"/>
<path d="M0 0 C-3 2 -3 2 -6 3 C-8.1875 2.0625 -8.1875 2.0625 -10 1 C-3.71428571 -1.42857143 -3.71428571 -1.42857143 0 0 Z " fill="#3D290F" transform="translate(764,772)"/>
<path d="M0 0 C4.21912747 0.4794463 6.79663178 1.16625119 10 4 C8.68 4.33 7.36 4.66 6 5 C5.67 4.34 5.34 3.68 5 3 C3.35636866 2.27840576 1.68949614 1.60648579 0 1 C0 0.67 0 0.34 0 0 Z " fill="#251204" transform="translate(618,767)"/>
<path d="M0 0 C1.95216435 1.95216435 2.84826645 3.53199953 4 6 C2.68 6.33 1.36 6.66 0 7 C-1.125 2.25 -1.125 2.25 0 0 Z " fill="#160F08" transform="translate(665,672)"/>
<path d="M0 0 C-0.99 0.33 -1.98 0.66 -3 1 C-3.33 1.66 -3.66 2.32 -4 3 C-6.31 2.67 -8.62 2.34 -11 2 C-7.00042393 -0.06874624 -4.43559483 -1.37656391 0 0 Z " fill="#392109" transform="translate(401,556)"/>
<path d="M0 0 C1.32 0.66 2.64 1.32 4 2 C1.03 4.475 1.03 4.475 -2 7 C-2.33 6.01 -2.66 5.02 -3 4 C-1.5625 1.8125 -1.5625 1.8125 0 0 Z " fill="#1C1006" transform="translate(457,518)"/>
<path d="M0 0 C2.64 0 5.28 0 8 0 C5 2 5 2 1 2 C0.67 2.66 0.34 3.32 0 4 C0 2.68 0 1.36 0 0 Z " fill="#F6AF3E" transform="translate(184,220)"/>
</svg>
