<?xml version="1.0" encoding="UTF-8"?>
<svg version="1.1" xmlns="http://www.w3.org/2000/svg" width="1536" height="1024">
<path d="M0 0 C506.88 0 1013.76 0 1536 0 C1536 337.92 1536 675.84 1536 1024 C1029.12 1024 522.24 1024 0 1024 C0 686.08 0 348.16 0 0 Z " fill="#000000" transform="translate(0,0)"/>
<path d="M0 0 C0.69717109 -0.00467997 1.39434218 -0.00935994 2.11263967 -0.01418173 C4.44355378 -0.02612487 6.77387912 -0.01667665 9.10479736 -0.00723267 C10.77923932 -0.01129942 12.45367859 -0.01664189 14.12811279 -0.02316284 C18.67900373 -0.03685097 23.22969075 -0.03152604 27.78058529 -0.02202559 C32.56552097 -0.01441169 37.35043958 -0.02148172 42.13537598 -0.02618408 C50.19227202 -0.03164715 58.24908571 -0.02444659 66.30596924 -0.01016235 C75.55840279 0.00605446 84.81063685 0.00095848 94.06306529 -0.01564157 C102.04227651 -0.02937414 110.02142852 -0.03111604 118.00064778 -0.02332556 C122.74937387 -0.01869866 127.49800723 -0.01788168 132.24672699 -0.02793503 C175.33767721 -0.10663069 219.95779619 2.0342613 254.96124268 30.38095093 C256.16587158 31.32261108 256.16587158 31.32261108 257.39483643 32.28329468 C277.69366578 49.20439883 289.08191878 74.06770243 294.14874268 99.50595093 C294.30383301 100.27334595 294.45892334 101.04074097 294.61871338 101.83139038 C295.14224247 104.6738538 295.56324938 107.51802844 295.96124268 110.38095093 C296.23158325 112.30463501 296.23158325 112.30463501 296.50738525 114.2671814 C298.69349299 131.94085276 298.30059278 149.81469118 298.2769165 167.59042358 C298.27227928 171.36398213 298.27923849 175.13721887 298.29742432 178.91073608 C298.49421731 220.14715262 298.49421731 220.14715262 294.96124268 238.38095093 C294.73154785 239.5741394 294.50185303 240.76732788 294.26519775 241.99667358 C293.66227191 244.78162732 292.97804571 247.51224206 292.21124268 250.25595093 C291.95520264 251.19809448 291.6991626 252.14023804 291.43536377 253.1109314 C285.8765409 272.87005043 276.7553228 289.184083 262.96124268 304.38095093 C262.18135986 305.25622437 261.40147705 306.1314978 260.59796143 307.03329468 C243.01733812 325.73671409 219.05144473 335.61088544 194.46124268 341.06845093 C193.09213745 341.3723877 193.09213745 341.3723877 191.69537354 341.6824646 C177.96198496 344.58870036 164.7330984 345.67468296 150.74639893 345.57626343 C149.15358154 345.57252079 147.56076182 345.56967976 145.96794128 345.56768799 C141.83016295 345.56014976 137.69253109 345.54058906 133.55480957 345.51828003 C129.31075012 345.49760676 125.06666638 345.48864094 120.8225708 345.47860718 C112.53539514 345.45733104 104.24833726 345.42331804 95.96124268 345.38095093 C95.96585164 346.42678156 95.97046061 347.47261219 95.97520924 348.55013466 C96.08616869 373.9883597 96.16835318 399.42655339 96.22030354 424.86496925 C96.24609361 437.16677065 96.28125975 449.46841225 96.33843994 461.77011108 C96.38824999 472.4913075 96.42052784 483.2123882 96.43168515 493.9336971 C96.4382079 499.61147787 96.45355538 505.28892758 96.48989296 510.96660233 C96.52381424 516.30999507 96.53430331 521.65292018 96.52678108 526.99641037 C96.52815734 528.95801077 96.53811269 530.9196267 96.55727005 532.88113403 C96.58214787 535.5595959 96.57616748 538.23629222 96.56251526 540.91479492 C96.57707947 541.69107133 96.59164367 542.46734773 96.60664922 543.26714766 C96.5263742 549.09356927 94.96999876 551.45594396 90.96124268 555.38095093 C87.55370928 557.08471763 83.6592975 556.54664816 79.90924072 556.55795288 C78.50170532 556.56780968 78.50170532 556.56780968 77.06573486 556.5778656 C73.9514763 556.59762304 70.837266 556.60926632 67.72296143 556.61923218 C66.66087778 556.6233077 65.59879414 556.62738323 64.50452614 556.63158226 C58.88373635 556.6524529 53.26297106 556.66675063 47.64215088 556.67611694 C41.8312493 556.68718668 36.0207301 556.72159049 30.2099638 556.76128864 C25.74643737 556.78741088 21.28300266 556.79580486 16.81940651 556.79939842 C14.67716704 556.80427532 12.53493196 556.81592052 10.39276695 556.83443642 C7.39534419 556.85873528 4.39891894 556.85787967 1.40142822 556.85092163 C0.51552505 556.86373169 -0.37037811 556.87654175 -1.28312683 556.88973999 C-5.29969625 556.85573387 -7.49583685 556.70677027 -11.00376892 554.60157776 C-15.33563552 549.87454384 -15.32535067 545.71108378 -15.29323292 539.46934605 C-15.2964394 538.55450686 -15.29964587 537.63966768 -15.30294952 536.69710609 C-15.31129943 533.60903813 -15.30530782 530.52116161 -15.29945374 527.43309021 C-15.30247214 525.20580795 -15.30636005 522.97852672 -15.3110463 520.75124735 C-15.32137509 514.61307023 -15.31913211 508.47495121 -15.31486571 502.33676922 C-15.31265958 496.40244945 -15.31979984 490.46814296 -15.32662596 484.53382833 C-15.34188449 470.89325487 -15.34356914 457.25269994 -15.34110294 443.61211974 C-15.33927189 433.0806945 -15.34102592 422.54927535 -15.34532738 412.01785088 C-15.34592977 410.5060231 -15.34653097 408.99419533 -15.34713098 407.48236756 C-15.34803821 405.20432678 -15.34894688 402.926286 -15.34986333 400.64824522 C-15.35829566 379.4620682 -15.36262661 358.27589347 -15.35845661 337.089715 C-15.35830024 336.29066062 -15.35814386 335.49160624 -15.35798274 334.66833808 C-15.35717693 330.61820458 -15.35633116 326.56807109 -15.35546944 322.51793761 C-15.35529836 321.71353553 -15.35512727 320.90913346 -15.354951 320.08035557 C-15.35460434 318.45365857 -15.35425581 316.82696158 -15.35390541 315.20026459 C-15.34854716 289.88393337 -15.35648043 264.56763698 -15.37493896 239.25131226 C-15.39564208 210.82303958 -15.40638494 182.39478849 -15.40236348 153.96650785 C-15.40196812 150.93696082 -15.40160657 147.90741378 -15.4012661 144.87786674 C-15.40117537 144.1318886 -15.40108463 143.38591046 -15.40099115 142.61732692 C-15.39982384 131.34258839 -15.40648359 120.0678716 -15.41707802 108.7931385 C-15.42911028 95.97498249 -15.43071179 83.15687447 -15.41828785 70.33871777 C-15.41222915 63.79440805 -15.41136094 57.25017327 -15.42329025 50.70586777 C-15.43407367 44.72082077 -15.43113627 38.73594694 -15.41702857 32.75090831 C-15.41436072 30.58002471 -15.41681289 28.40912786 -15.42476443 26.23825718 C-15.43479041 23.29809158 -15.42651723 20.35853732 -15.41348743 17.41839695 C-15.42445145 16.14029483 -15.42445145 16.14029483 -15.43563697 14.83637246 C-15.39260886 10.18465607 -15.03260949 7.17073032 -12.03875732 3.38095093 C-8.08973517 0.23819916 -4.96935063 0.0045108 0 0 Z " fill="#FD8300" transform="translate(447.03875732421875,217.61904907226563)"/>
<path d="M0 0 C9.2515415 8.50375336 16.89050533 17.42985917 23.14794922 28.33544922 C23.504375 28.95468262 23.86080078 29.57391602 24.22802734 30.21191406 C37.91173148 54.53639918 42.75967135 81.7770317 44.14794922 109.33544922 C44.19999512 110.36750488 44.25204102 111.39956055 44.30566406 112.46289062 C44.43698244 115.48321326 44.52175501 118.50050718 44.58544922 121.52294922 C44.63717285 122.89459229 44.63717285 122.89459229 44.68994141 124.29394531 C44.69815918 125.57325928 44.69815918 125.57325928 44.70654297 126.87841797 C44.71999756 127.62115967 44.73345215 128.36390137 44.74731445 129.12915039 C43.80089062 132.61299242 41.92779277 134.1070726 39.14794922 136.33544922 C36.03295898 137.3503418 36.03295898 137.3503418 32.27685547 137.91748047 C31.55857071 138.02872757 30.84028595 138.13997467 30.10023499 138.2545929 C27.45303753 138.64790493 24.80257837 138.99583982 22.14794922 139.33544922 C21.04795593 139.47690369 19.94796265 139.61835815 18.81463623 139.76409912 C10.96822258 140.75587815 3.11443451 141.67044796 -4.74487305 142.55249023 C-7.52724449 142.8649495 -10.30871784 143.18407232 -13.08959961 143.50952148 C-49.16821701 147.72892252 -49.16821701 147.72892252 -55.85205078 146.33544922 C-59.2776029 143.5786715 -61.07078984 141.63194006 -61.85205078 137.33544922 C-61.98005399 134.55700537 -62.06075725 131.79863347 -62.09814453 129.01904297 C-62.13111352 127.35041853 -62.1643246 125.68179887 -62.19775391 124.01318359 C-62.24487532 121.40246197 -62.2892656 118.79175522 -62.32885742 116.1809082 C-62.61704724 98.0422063 -63.6640957 81.35121264 -76.59423828 67.46435547 C-87.06718966 57.36078204 -100.06606461 55.83438498 -113.90673828 56.06591797 C-125.34609553 56.51197819 -134.80990945 59.96300566 -142.85205078 68.33544922 C-158.18236707 86.88861609 -157.44374281 110.50501068 -157.35375977 133.37475586 C-157.35534311 136.14488297 -157.3629069 138.914987 -157.37013245 141.68510437 C-157.38394961 148.37978644 -157.37659523 155.07427781 -157.36145686 161.76895053 C-157.34445537 169.59014301 -157.34782465 177.41128985 -157.35155094 185.23249512 C-157.35740832 199.20117748 -157.3433413 213.16976925 -157.31860352 227.13842773 C-157.29468444 240.64660028 -157.28760382 254.15465188 -157.2980957 267.6628418 C-157.30954296 282.42718506 -157.31138851 297.19147262 -157.29699761 311.95581526 C-157.29547201 313.53449753 -157.29395165 315.11317982 -157.2924366 316.69186211 C-157.29129988 317.85651315 -157.29129988 317.85651315 -157.29014019 319.04469251 C-157.28542705 324.47721729 -157.28722749 329.90971692 -157.291502 335.34224129 C-157.29646356 341.97534322 -157.29029056 348.60833156 -157.2706077 355.2414077 C-157.26083558 358.6160641 -157.25716409 361.99040745 -157.26350021 365.36509323 C-157.96273188 392.17027683 -157.96273188 392.17027683 -149.91455078 417.27294922 C-149.58003906 417.91683594 -149.24552734 418.56072266 -148.90087891 419.22412109 C-146.96589918 422.82937234 -144.77985464 425.51244371 -141.85205078 428.33544922 C-141.85205078 428.99544922 -141.85205078 429.65544922 -141.85205078 430.33544922 C-141.30806641 430.60357422 -140.76408203 430.87169922 -140.20361328 431.14794922 C-138.51919496 431.99855249 -136.84865987 432.87686836 -135.18798828 433.77294922 C-120.95619209 441.2831319 -104.19207164 443.02779985 -88.59033203 438.36669922 C-78.18145206 434.44666454 -69.83205557 429.06818437 -65.09814453 418.69091797 C-64.54337509 417.34912733 -64.00292892 416.00132405 -63.47705078 414.64794922 C-63.23817139 414.03773926 -62.99929199 413.4275293 -62.75317383 412.79882812 C-58.31247033 400.20799526 -58.52714766 386.63893675 -58.43798828 373.46826172 C-58.41923095 371.6946426 -58.39965433 369.92103197 -58.37930298 368.14743042 C-58.32845716 363.52806662 -58.28858028 358.90867402 -58.25115967 354.28918457 C-58.21081807 349.55583863 -58.15986496 344.82260747 -58.10986328 340.08935547 C-58.01366877 330.83813457 -57.92908741 321.58684813 -57.85205078 312.33544922 C-59.09817139 312.35115967 -60.34429199 312.36687012 -61.62817383 312.38305664 C-66.25929276 312.43742995 -70.89038356 312.47182633 -75.52172852 312.50024414 C-77.5247065 312.51531387 -79.52765158 312.53577332 -81.53051758 312.56176758 C-84.41251759 312.59823049 -87.29408063 312.61519382 -90.17626953 312.62841797 C-91.06916183 312.64390182 -91.96205414 312.65938568 -92.88200378 312.67533875 C-97.66552873 312.67662836 -101.06696391 312.59609901 -104.85205078 309.33544922 C-107.84788438 305.27933903 -108.23058248 302.32430158 -108.24023438 297.32958984 C-108.24811981 296.30178658 -108.24811981 296.30178658 -108.25616455 295.2532196 C-108.26931631 292.99914427 -108.26064418 290.74578114 -108.25048828 288.49169922 C-108.25251042 286.91898463 -108.25542302 285.34627096 -108.25918579 283.77355957 C-108.26360259 280.48176116 -108.25719903 277.19020741 -108.24316406 273.8984375 C-108.22607235 269.68502578 -108.23591702 265.47218739 -108.25388145 261.25879669 C-108.26473683 258.01250918 -108.26126495 254.76635696 -108.25349808 251.52006531 C-108.25150091 249.96677075 -108.25393835 248.41346379 -108.26093674 246.86018372 C-108.26858038 244.68689573 -108.25690759 242.51452826 -108.24023438 240.34130859 C-108.2378476 239.1061853 -108.23546082 237.87106201 -108.23300171 236.59851074 C-107.80642785 232.94466282 -107.18423636 231.17029779 -104.85205078 228.33544922 C-99.23475842 224.09811039 -92.49639786 224.91440032 -85.78173828 224.94726562 C-84.46401428 224.94200867 -83.14629028 224.93675171 -81.78863525 224.93133545 C-78.1853121 224.91769346 -74.58224749 224.92294746 -70.97891998 224.93247271 C-67.20208557 224.94008554 -63.42527281 224.93301919 -59.6484375 224.92831421 C-53.3067631 224.92286137 -46.96519362 224.93003583 -40.62353516 224.94433594 C-33.29917174 224.9606616 -25.97505887 224.95537276 -18.65070152 224.93885672 C-12.35412646 224.92522836 -6.05762669 224.92332878 0.23895836 224.93117273 C3.99611898 224.93584184 7.75316195 224.93649514 11.51031494 224.92656326 C15.69957235 224.91626202 19.88840002 224.93055299 24.07763672 224.94726562 C25.31833923 224.94119293 26.55904175 224.93512024 27.83734131 224.92886353 C38.57751078 225.00829006 38.57751078 225.00829006 43.14794922 228.33544922 C46.36464369 231.70971896 46.52442212 234.21183916 46.52890015 238.79838562 C46.53358012 239.44569966 46.53826009 240.09301369 46.54308188 240.75994331 C46.55504237 242.92814298 46.54557008 245.0957117 46.53613281 247.26391602 C46.5401989 248.81998564 46.545541 250.37605238 46.55206299 251.93211365 C46.56576181 256.16489706 46.56042111 260.39746145 46.55092573 264.63024879 C46.54331411 269.08153342 46.55038153 273.53279968 46.55508423 277.98408508 C46.56054932 285.48201842 46.55334288 292.9798633 46.5390625 300.4777832 C46.52285946 309.08320667 46.52793056 317.6884155 46.54454172 326.29383343 C46.55828578 333.7167671 46.56001033 341.13963713 46.55222571 348.56257945 C46.54760311 352.97932825 46.54676906 357.39597739 46.55683517 361.81271935 C46.64003357 404.1281481 43.18033608 445.79112706 16.14794922 480.33544922 C15.49955078 481.18751953 14.85115234 482.03958984 14.18310547 482.91748047 C-9.2827548 513.16753005 -43.64969071 527.73154521 -80.84814453 532.45654297 C-89.51736254 533.4799108 -98.14156367 533.64076869 -106.86328125 533.59619141 C-109.3506709 533.58545517 -111.83733875 533.59617361 -114.32470703 533.60888672 C-155.66767113 533.64635838 -193.65070154 522.13701682 -223.85205078 493.33544922 C-224.95033203 492.31644531 -224.95033203 492.31644531 -226.07080078 491.27685547 C-235.72847182 482.05991149 -242.57482757 470.99117426 -248.85205078 459.33544922 C-249.54427734 458.09214844 -249.54427734 458.09214844 -250.25048828 456.82373047 C-256.08424511 445.8807917 -259.75685143 434.09371651 -262.10205078 421.96044922 C-262.25295166 421.18467529 -262.40385254 420.40890137 -262.55932617 419.60961914 C-265.75196557 401.76141589 -266.15622058 384.02436156 -266.14281821 365.93864572 C-266.14240394 362.43805505 -266.15350636 358.93749561 -266.16293335 355.43692017 C-266.17941496 348.60345091 -266.18503704 341.77001618 -266.18615811 334.93652869 C-266.18711482 329.37037962 -266.19125587 323.80424175 -266.19755936 318.23809624 C-266.21513745 302.38896316 -266.22440373 286.53985696 -266.22289841 270.69071407 C-266.2228185 269.83959727 -266.22273858 268.98848048 -266.22265625 268.11157227 C-266.22257449 267.25939259 -266.22249273 266.40721291 -266.22240849 265.52920961 C-266.22159677 251.74001905 -266.24071461 237.95093803 -266.26893298 224.16177911 C-266.29780967 209.93643857 -266.31146518 195.71115118 -266.30974543 181.48578066 C-266.30908656 173.52619472 -266.314355 165.56672358 -266.33610153 157.60716438 C-266.35450953 150.82716806 -266.35850295 144.04733856 -266.34508269 137.26732779 C-266.33864967 133.82261036 -266.3403436 130.3784661 -266.35578918 126.93374062 C-266.49489803 93.71830076 -262.38183364 61.65242259 -245.85205078 32.33544922 C-245.35060547 31.40990234 -244.84916016 30.48435547 -244.33251953 29.53076172 C-240.56489906 22.86736683 -235.78322212 17.16403823 -230.85205078 11.33544922 C-230.06830078 10.30419922 -229.28455078 9.27294922 -228.47705078 8.21044922 C-203.47586731 -19.17179934 -165.01092997 -32.36569408 -128.76953125 -34.54003906 C-83.07180062 -36.49031878 -35.46717074 -31.87650542 0 0 Z " fill="#FD8400" transform="translate(1060.85205078125,247.66455078125)"/>
<path d="M0 0 C65.23506098 0 65.23506098 0 78.75 12.125 C91.11345507 25.47753148 92.62946913 44.51498431 92.4609375 61.765625 C92.45854328 63.41794693 92.45764981 65.07027163 92.4581604 66.72259521 C92.45506304 70.15475974 92.43873321 73.58649746 92.41162109 77.01855469 C92.37753801 81.38445492 92.36999764 85.74989179 92.37151146 90.11590958 C92.37096402 93.51686907 92.35993913 96.91773038 92.34550858 100.31865692 C92.3392155 101.92756156 92.33521959 103.53647712 92.33372116 105.14539337 C92.29792005 123.47309131 90.46313893 139.68113634 78 154 C58.42639863 173.28815302 22.71861758 167 0 167 C0 111.89 0 56.78 0 0 Z " fill="#010000" transform="translate(543,308)"/>
<path d="M0 0 C1.317724 -0.00525696 2.635448 -0.01051392 3.99310303 -0.01593018 C7.59642618 -0.02957216 11.19949079 -0.02431817 14.8028183 -0.01479292 C18.57965271 -0.00718009 22.35646547 -0.01424643 26.13330078 -0.01895142 C32.47497519 -0.02440425 38.81654466 -0.01722979 45.15820312 -0.00292969 C52.48256654 0.01339598 59.80667941 0.00810713 67.13103676 -0.0084089 C73.42761182 -0.02203727 79.72411159 -0.02393685 86.02069664 -0.0160929 C89.77785726 -0.01142378 93.53490023 -0.01077048 97.29205322 -0.02070236 C101.48131063 -0.03100361 105.67013831 -0.01671264 109.859375 0 C111.10007751 -0.00607269 112.34078003 -0.01214539 113.61907959 -0.0184021 C124.35924906 0.06102443 124.35924906 0.06102443 128.9296875 3.38818359 C132.20292716 6.79793266 132.30123208 9.37631961 132.29045105 14.01934814 C132.29301432 14.68430133 132.2955776 15.34925451 132.29821855 16.03435779 C132.30315727 18.26094539 132.2866629 20.48685385 132.27026367 22.71337891 C132.26941741 24.31000757 132.26989252 25.9066374 132.27159119 27.50326538 C132.27245262 31.83770316 132.25480291 36.17189235 132.23386931 40.50627232 C132.21512721 45.03596807 132.21335402 49.5656694 132.20979309 54.09539795 C132.20046537 62.67306704 132.17584175 71.25062154 132.14574462 79.82824016 C132.11222324 89.59354814 132.09572029 99.35886156 132.08065832 109.12421274 C132.04929283 129.212267 131.99651819 149.30021808 131.9296875 169.38818359 C131.5996875 169.38818359 131.2696875 169.38818359 130.9296875 169.38818359 C130.92729915 168.56819539 130.92491079 167.74820719 130.92245007 166.90337086 C130.86332877 146.95650155 130.78779712 127.00975335 130.69397259 107.06301594 C130.64899608 97.41694035 130.60958569 87.77090184 130.58325195 78.12475586 C130.5602869 69.71773353 130.5269056 61.31082834 130.48098594 52.90389889 C130.45703356 48.45197538 130.438318 44.00016803 130.43207359 39.54818153 C130.42603183 35.35796958 130.40606505 31.16805492 130.37541199 26.97795296 C130.36661715 25.44008192 130.36291217 23.90217206 130.36467934 22.36427689 C130.36633096 20.26373223 130.34964404 18.16409508 130.32841492 16.06367493 C130.32150147 14.30074584 130.32150147 14.30074584 130.31444836 12.50220203 C129.87495195 8.94518759 129.23197362 7.13560351 126.9296875 4.38818359 C122.98826483 2.58231264 119.525345 2.13851129 115.22384644 2.14094543 C114.11071075 2.13675095 112.99757507 2.13255646 111.85070801 2.12823486 C110.04104553 2.13666412 110.04104553 2.13666412 108.19482422 2.14526367 C106.27194077 2.14241615 106.27194077 2.14241615 104.31021118 2.13951111 C100.80622958 2.13467911 97.30237606 2.14229721 93.79840994 2.15246415 C90.12741849 2.16126951 86.45643076 2.15948674 82.78543091 2.15910339 C76.62369655 2.16003877 70.46201156 2.16870673 64.30029297 2.18237305 C57.17818393 2.19811115 50.05612888 2.20337059 42.93400371 2.20263749 C35.3458703 2.20196195 27.75775767 2.20890212 20.16963053 2.2180841 C17.98477887 2.22021445 15.79993057 2.22092514 13.61507797 2.22132301 C9.54527999 2.2225145 5.47554581 2.23222793 1.40576172 2.24291992 C0.19527161 2.24246674 -1.01521851 2.24201355 -2.26239014 2.24154663 C-3.92363419 2.24794411 -3.92363419 2.24794411 -5.61843872 2.25447083 C-6.58037203 2.25614667 -7.54230534 2.25782251 -8.53338814 2.25954914 C-12.96927842 2.48447044 -14.53462853 2.86106672 -17.78759766 6.06201172 C-21.48331565 11.64602307 -20.70753315 18.16612092 -20.59375 24.60693359 C-20.58694843 25.99262654 -20.58223356 27.37833115 -20.57949829 28.76403809 C-20.56614152 32.3982112 -20.52194485 36.03139515 -20.47192383 39.66522217 C-20.43653676 42.62125965 -20.42344256 45.57719751 -20.41150475 48.53340912 C-20.3966523 52.07881116 -20.37151039 55.62411171 -20.34375 59.16943359 C-20.33883923 59.83776718 -20.33392845 60.50610077 -20.32886887 61.19468689 C-20.31242482 63.10364157 -20.28794723 65.01252183 -20.26318359 66.92138672 C-20.25032318 68.00391724 -20.23746277 69.08644775 -20.22421265 70.20178223 C-20.08234523 76.96590365 -20.08234523 76.96590365 -17.1328125 82.76318359 C-5.03495283 92.29483061 13.53241155 86.02158179 28.9296875 86.38818359 C28.9296875 115.75818359 28.9296875 145.12818359 28.9296875 175.38818359 C28.2696875 175.38818359 27.6096875 175.38818359 26.9296875 175.38818359 C27.2596875 146.34818359 27.5896875 117.30818359 27.9296875 87.38818359 C14.0696875 87.38818359 0.2096875 87.38818359 -14.0703125 87.38818359 C-20.1538301 83.73807304 -20.1538301 83.73807304 -22.0703125 79.38818359 C-22.45126343 76.12512207 -22.45126343 76.12512207 -22.45849609 72.38232422 C-22.46375305 71.69712204 -22.46901001 71.01191986 -22.47442627 70.30595398 C-22.48757803 68.05187864 -22.47890589 65.79851551 -22.46875 63.54443359 C-22.47077214 61.97171901 -22.47368474 60.39900533 -22.47744751 58.82629395 C-22.48186431 55.53449554 -22.47546075 52.24294179 -22.46142578 48.95117188 C-22.44433407 44.73776015 -22.45417874 40.52492177 -22.47214317 36.31153107 C-22.48299855 33.06524356 -22.47952667 29.81909133 -22.4717598 26.57279968 C-22.46976263 25.01950512 -22.47220006 23.46619817 -22.47919846 21.91291809 C-22.4868421 19.7396301 -22.47516931 17.56726263 -22.45849609 15.39404297 C-22.45610931 14.15891968 -22.45372253 12.92379639 -22.45126343 11.65124512 C-22.02468957 7.99739719 -21.40249808 6.22303217 -19.0703125 3.38818359 C-13.45302014 -0.84915524 -6.71465957 -0.0328653 0 0 Z " fill="#E48D29" transform="translate(975.0703125,472.61181640625)"/>
<path d="M0 0 C0.33 0 0.66 0 1 0 C1.07000888 26.54646499 1.1229483 53.0929162 1.15543652 79.63945484 C1.17092073 91.96482741 1.19203992 104.2901427 1.22631836 116.61547852 C1.25617315 127.35532327 1.27556368 138.09512656 1.28226548 148.83501166 C1.28618439 154.5243405 1.29542659 160.21355067 1.31719017 165.90284157 C1.33749341 171.25353292 1.34384631 176.60405627 1.33932304 181.95478249 C1.34015101 183.92246411 1.3461532 185.89015112 1.35761642 187.85779953 C1.37246418 190.53694453 1.36898202 193.21544881 1.36076355 195.89460754 C1.36950207 196.67962247 1.3782406 197.4646374 1.38724393 198.27344066 C1.34328097 203.54758519 1.34328097 203.54758519 -0.52254772 206.00658703 C-1.01010697 206.33441331 -1.49766623 206.66223959 -2 207 C-2 205.35 -2 203.7 -2 202 C-1.34 202 -0.68 202 0 202 C0 135.34 0 68.68 0 0 Z " fill="#FDA21C" transform="translate(542,563)"/>
<path d="M0 0 C-30.72649323 15.88370792 -30.72649323 15.88370792 -40 13 C-39.67 12.34 -39.34 11.68 -39 11 C-36.74755908 10.45846202 -34.47050873 10.01822339 -32.1875 9.625 C-26.00803858 8.50463387 -20.21417558 6.90308351 -14.29296875 4.76953125 C-12 4 -12 4 -10 4 C-10 3.34 -10 2.68 -10 2 C-8.71211992 1.46987262 -7.41953322 0.9511671 -6.125 0.4375 C-5.40570312 0.14746094 -4.68640625 -0.14257812 -3.9453125 -0.44140625 C-2 -1 -2 -1 0 0 Z " fill="#DE8B20" transform="translate(1038,762)"/>
<path d="M0 0 C0.99 0.495 0.99 0.495 2 1 C2.6328125 3.06640625 2.6328125 3.06640625 3.125 5.5625 C3.29257812 6.38878906 3.46015625 7.21507812 3.6328125 8.06640625 C3.75398437 8.70449219 3.87515625 9.34257813 4 10 C4.66 10 5.32 10 6 10 C8.04301154 14.52381127 9.00956295 19.16371695 10 24 C5.77697184 21.88848592 4.55990938 15.22843359 3 11 C1.88558641 7.35841228 0.89611541 3.7010295 0 0 Z " fill="#E78A1C" transform="translate(802,680)"/>
<path d="M0 0 C1 3 1 3 -0.3125 5.75 C-3.4822757 10.16544194 -8.17711073 13.58082638 -13 16 C-15.3125 15.69140625 -15.3125 15.69140625 -17 15 C-16.35933594 14.67128906 -15.71867188 14.34257812 -15.05859375 14.00390625 C-8.384391 10.33359207 -4.23385857 6.30872966 0 0 Z " fill="#E08619" transform="translate(626,454)"/>
<path d="M0 0 C4.58361445 1.52787148 5.58581726 4.92450251 7.76953125 9.0546875 C9.43327005 13.0370972 9.48103617 15.75084715 9 20 C6.78930051 15.74235653 5.03722802 11.31031223 3.21875 6.875 C2.2241441 4.52875018 1.17358676 2.26024118 0 0 Z " fill="#E58616" transform="translate(624,323)"/>
<path d="M0 0 C0.33 0 0.66 0 1 0 C1.23396451 5.73213046 1.08898273 10.61262348 -1 16 C-1.99 16.66 -2.98 17.32 -4 18 C-2.66666667 12 -1.33333333 6 0 0 Z " fill="#DB811A" transform="translate(1001,648)"/>
<path d="M0 0 C0 0.66 0 1.32 0 2 C-1.41377782 2.36552803 -2.83120576 2.71695495 -4.25 3.0625 C-5.03890625 3.25972656 -5.8278125 3.45695313 -6.640625 3.66015625 C-9.10394822 4.01497267 -10.65604132 3.76877544 -13 3 C-12.67 2.34 -12.34 1.68 -12 1 C-8.01624339 -0.17169312 -4.12560776 -0.08089427 0 0 Z " fill="#EC8D19" transform="translate(1011,772)"/>
<path d="M0 0 C-2.64 3.63 -5.28 7.26 -8 11 C-8.33 10.01 -8.66 9.02 -9 8 C-8.03114628 6.31503702 -7.03013277 4.64821244 -6 3 C-6 2.01 -6 1.02 -6 0 C-2.25 -1.125 -2.25 -1.125 0 0 Z " fill="#EE8E1C" transform="translate(919,315)"/>
<path d="M0 0 C4.21814817 3.9700218 7.61227103 8.30840284 11 13 C10.01 13.495 10.01 13.495 9 14 C7.49412261 12.04594482 5.99521356 10.08718716 4.5 8.125 C4.07074219 7.56941406 3.64148438 7.01382812 3.19921875 6.44140625 C0 2.2265625 0 2.2265625 0 0 Z " fill="#E4881A" transform="translate(710,256)"/>
<path d="M0 0 C0.33 0 0.66 0 1 0 C1.0809723 2.43816585 1.14046972 4.87364384 1.1875 7.3125 C1.22520508 8.34793945 1.22520508 8.34793945 1.26367188 9.40429688 C1.33834499 14.55674183 1.33834499 14.55674183 -0.51171875 16.98046875 C-1.24841797 17.48513672 -1.24841797 17.48513672 -2 18 C-2 16.35 -2 14.7 -2 13 C-1.34 13 -0.68 13 0 13 C0 8.71 0 4.42 0 0 Z " fill="#F4991C" transform="translate(542,752)"/>
<path d="M0 0 C0 3.41321235 -0.66867466 4.39472885 -2.5 7.1875 C-2.9640625 7.90292969 -3.428125 8.61835938 -3.90625 9.35546875 C-4.2671875 9.89816406 -4.628125 10.44085938 -5 11 C-5.66 10.67 -6.32 10.34 -7 10 C-6.02223933 8.51990357 -5.0427506 7.04094856 -4.0625 5.5625 C-3.51722656 4.73878906 -2.97195313 3.91507812 -2.41015625 3.06640625 C-1 1 -1 1 0 0 Z " fill="#E0871A" transform="translate(823,268)"/>
<path d="M0 0 C3.21524305 1.40844718 5.32183868 3.10344786 7.75 5.625 C8.67039062 6.57246094 8.67039062 6.57246094 9.609375 7.5390625 C10.29773437 8.26222656 10.29773437 8.26222656 11 9 C7.25983417 9 6.54723807 8.0658409 3.8125 5.625 C3.09707031 4.99851563 2.38164063 4.37203125 1.64453125 3.7265625 C0 2 0 2 0 0 Z " fill="#EB8E1E" transform="translate(1055,244)"/>
<path d="M0 0 C2.31 0 4.62 0 7 0 C3.75518249 2.16321167 0.64944241 3.6314591 -3 5 C-3.99 4.67 -4.98 4.34 -6 4 C-4.7934375 3.566875 -4.7934375 3.566875 -3.5625 3.125 C-0.8673532 2.26737432 -0.8673532 2.26737432 0 0 Z " fill="#E68A1B" transform="translate(668,547)"/>
<path d="M0 0 C6.36734694 0.36734694 6.36734694 0.36734694 9.4375 3.4375 C11 6 11 6 11 8 C10.34 8 9.68 8 9 8 C8.5875 7.21625 8.175 6.4325 7.75 5.625 C5.55111113 2.3266667 3.76889042 1.92128432 0 1 C0 0.67 0 0.34 0 0 Z " fill="#DA841F" transform="translate(1096,474)"/>
<path d="M0 0 C0.66 0.66 1.32 1.32 2 2 C-0.31 4.31 -2.62 6.62 -5 9 C-5.66 8.67 -6.32 8.34 -7 8 C-4.69 5.36 -2.38 2.72 0 0 Z " fill="#180702" transform="translate(1074,731)"/>
<path d="M0 0 C0.99 0 1.98 0 3 0 C2.39009109 3.55780196 1.4216319 6.6828589 0 10 C-1.2380014 6.42355152 -0.74926071 3.66305234 0 0 Z " fill="#E78413" transform="translate(729,486)"/>
<path d="M0 0 C0.66 0 1.32 0 2 0 C2.33 0.99 2.66 1.98 3 3 C0.525 4.485 0.525 4.485 -2 6 C-1.125 1.125 -1.125 1.125 0 0 Z " fill="#E88311" transform="translate(921,308)"/>
</svg>
